<svg xmlns="http://www.w3.org/2000/svg" width="128" height="128" viewBox="0 0 128 128">
<defs><radialGradient id="r1" gradientUnits="userSpaceOnUse" cx="64" cy="64" r="92"><stop offset="0" stop-color="#171f12"/><stop offset="0.55" stop-color="#0d0f0c"/><stop offset="1" stop-color="#040208"/></radialGradient><radialGradient id="r2" gradientUnits="userSpaceOnUse" cx="45.74" cy="59.82" r="42.84"><stop offset="0" stop-color="#688C53" stop-opacity="0.22"/><stop offset="1" stop-color="#688C53" stop-opacity="0"/></radialGradient><radialGradient id="r3" gradientUnits="userSpaceOnUse" cx="63.14" cy="64.16" r="43.53"><stop offset="0" stop-color="#688C53" stop-opacity="0.22"/><stop offset="1" stop-color="#688C53" stop-opacity="0"/></radialGradient><radialGradient id="r4" gradientUnits="userSpaceOnUse" cx="23.92" cy="21.75" r="35.42"><stop offset="0" stop-color="#688C53" stop-opacity="0.22"/><stop offset="1" stop-color="#688C53" stop-opacity="0"/></radialGradient><radialGradient id="r5" gradientUnits="userSpaceOnUse" cx="47.73" cy="71.09" r="28.16"><stop offset="0" stop-color="#D5B86A" stop-opacity="0.22"/><stop offset="1" stop-color="#D5B86A" stop-opacity="0"/></radialGradient><radialGradient id="r6" gradientUnits="userSpaceOnUse" cx="78.97" cy="97.95" r="35.13"><stop offset="0" stop-color="#D5B86A" stop-opacity="0.22"/><stop offset="1" stop-color="#D5B86A" stop-opacity="0"/></radialGradient><linearGradient id="l7" gradientUnits="userSpaceOnUse" x1="0" y1="8" x2="0" y2="16"><stop offset="0" stop-color="#6a6e76"/><stop offset="1" stop-color="#23262c"/></linearGradient><linearGradient id="l8" gradientUnits="userSpaceOnUse" x1="-40" y1="-40" x2="40" y2="40"><stop offset="0" stop-color="#e8b884"/><stop offset="0.5" stop-color="#a0683a"/><stop offset="1" stop-color="#4a2a10"/></linearGradient><linearGradient id="l9" gradientUnits="userSpaceOnUse" x1="-37.38" y1="4.33" x2="-29.78" y2="2.7"><stop offset="0" stop-color="#ffffff"/><stop offset="1" stop-color="#a0683a"/></linearGradient><linearGradient id="l10" gradientUnits="userSpaceOnUse" x1="-31.14" y1="-5.47" x2="-23.4" y2="-4.64"><stop offset="0" stop-color="#ffffff"/><stop offset="1" stop-color="#a0683a"/></linearGradient><linearGradient id="l11" gradientUnits="userSpaceOnUse" x1="-20.05" y1="-12.92" x2="-13.27" y2="-9.11"><stop offset="0" stop-color="#ffffff"/><stop offset="1" stop-color="#a0683a"/></linearGradient><linearGradient id="l12" gradientUnits="userSpaceOnUse" x1="-5.93" y1="-17.23" x2="-1.9" y2="-10.57"><stop offset="0" stop-color="#ffffff"/><stop offset="1" stop-color="#a0683a"/></linearGradient><linearGradient id="l13" gradientUnits="userSpaceOnUse" x1="9.47" y1="-17.67" x2="9.51" y2="-9.89"><stop offset="0" stop-color="#ffffff"/><stop offset="1" stop-color="#a0683a"/></linearGradient><linearGradient id="l14" gradientUnits="userSpaceOnUse" x1="23.61" y1="-13.55" x2="20.32" y2="-6.5"><stop offset="0" stop-color="#ffffff"/><stop offset="1" stop-color="#a0683a"/></linearGradient><linearGradient id="l15" gradientUnits="userSpaceOnUse" x1="33.67" y1="-5.53" x2="28.2" y2="0.01"><stop offset="0" stop-color="#ffffff"/><stop offset="1" stop-color="#a0683a"/></linearGradient><linearGradient id="l16" gradientUnits="userSpaceOnUse" x1="-40" y1="-40" x2="40" y2="40"><stop offset="0" stop-color="#e8b884"/><stop offset="0.5" stop-color="#a0683a"/><stop offset="1" stop-color="#4a2a10"/></linearGradient><linearGradient id="l17" gradientUnits="userSpaceOnUse" x1="36.97" y1="11.39" x2="29.59" y2="13.86"><stop offset="0" stop-color="#ffffff"/><stop offset="1" stop-color="#a0683a"/></linearGradient><linearGradient id="l18" gradientUnits="userSpaceOnUse" x1="30.06" y1="15.24" x2="22.39" y2="16.54"><stop offset="0" stop-color="#ffffff"/><stop offset="1" stop-color="#a0683a"/></linearGradient><linearGradient id="l19" gradientUnits="userSpaceOnUse" x1="18.58" y1="18" x2="10.85" y2="17.04"><stop offset="0" stop-color="#ffffff"/><stop offset="1" stop-color="#a0683a"/></linearGradient><linearGradient id="l20" gradientUnits="userSpaceOnUse" x1="5.65" y1="20.53" x2="0.9" y2="14.36"><stop offset="0" stop-color="#ffffff"/><stop offset="1" stop-color="#a0683a"/></linearGradient><linearGradient id="l21" gradientUnits="userSpaceOnUse" x1="-9.61" y1="23.67" x2="-6.83" y2="16.4"><stop offset="0" stop-color="#ffffff"/><stop offset="1" stop-color="#a0683a"/></linearGradient><linearGradient id="l22" gradientUnits="userSpaceOnUse" x1="-24.24" y1="22.67" x2="-18.87" y2="17.04"><stop offset="0" stop-color="#ffffff"/><stop offset="1" stop-color="#a0683a"/></linearGradient><linearGradient id="l23" gradientUnits="userSpaceOnUse" x1="-34.13" y1="19.46" x2="-27.82" y2="14.9"><stop offset="0" stop-color="#ffffff"/><stop offset="1" stop-color="#a0683a"/></linearGradient><radialGradient id="r24" gradientUnits="userSpaceOnUse" cx="-41" cy="8" r="6"><stop offset="0" stop-color="#e8b884"/><stop offset="1" stop-color="#4a2a10"/></radialGradient><radialGradient id="r25" gradientUnits="userSpaceOnUse" cx="39" cy="8" r="6"><stop offset="0" stop-color="#e8b884"/><stop offset="1" stop-color="#4a2a10"/></radialGradient><linearGradient id="l26" gradientUnits="userSpaceOnUse" x1="-5.5" y1="-26" x2="5.5" y2="0"><stop offset="0" stop-color="#a8d88a"/><stop offset="1" stop-color="#12301a"/></linearGradient><radialGradient id="r27" gradientUnits="userSpaceOnUse" cx="64" cy="64" r="92"><stop offset="0" stop-color="#000000" stop-opacity="0"/><stop offset="0.58" stop-color="#000000" stop-opacity="0"/><stop offset="0.85" stop-color="#000000" stop-opacity="0.28"/><stop offset="1" stop-color="#000000" stop-opacity="0.5"/></radialGradient><linearGradient id="l28" gradientUnits="userSpaceOnUse" x1="20" y1="10" x2="108" y2="118"><stop offset="0" stop-color="#e6dca2"/><stop offset="0.4" stop-color="#8a7c44"/><stop offset="0.75" stop-color="#232410"/><stop offset="1" stop-color="#15160a"/></linearGradient></defs>
<rect x="0" y="0" width="128" height="128" fill="url(#r1)"/>
<circle cx="45.74" cy="59.82" r="42.84" fill="url(#r2)"/>
<circle cx="63.14" cy="64.16" r="43.53" fill="url(#r3)"/>
<circle cx="23.92" cy="21.75" r="35.42" fill="url(#r4)"/>
<circle cx="47.73" cy="71.09" r="28.16" fill="url(#r5)"/>
<circle cx="78.97" cy="97.95" r="35.13" fill="url(#r6)"/>
<path d="M-10,33.76 L140,-21.29" fill="none" stroke="#ffffff" stroke-width="9.26" opacity="0.02" stroke-linejoin="round" stroke-linecap="round"/>
<path d="M-10,69.22 L140,12.61" fill="none" stroke="#ffffff" stroke-width="5.23" opacity="0.02" stroke-linejoin="round" stroke-linecap="round"/>
<path d="M-10,27.19 L140,-28.99" fill="none" stroke="#ffffff" stroke-width="4.63" opacity="0.02" stroke-linejoin="round" stroke-linecap="round"/>
<path d="M-10,96.63 L140,36.41" fill="none" stroke="#ffffff" stroke-width="8.75" opacity="0.02" stroke-linejoin="round" stroke-linecap="round"/>
<path d="M-10,77.39 L140,11.06" fill="none" stroke="#ffffff" stroke-width="9.72" opacity="0.02" stroke-linejoin="round" stroke-linecap="round"/>
<path d="M-10,82.07 L140,14.28" fill="none" stroke="#ffffff" stroke-width="9.17" opacity="0.02" stroke-linejoin="round" stroke-linecap="round"/>
<path d="M-10,107.04 L140,51.14" fill="none" stroke="#ffffff" stroke-width="7.49" opacity="0.02" stroke-linejoin="round" stroke-linecap="round"/>
<g transform="translate(64 64) scale(0.7) translate(-64 -64)">
<g transform="translate(64 80) scale(0.8 0.8)">
<path d="M-19,8 L19,8 Q22,8 22,11 L22,13 Q22,16 19,16 L-19,16 Q-22,16 -22,13 L-22,11 Q-22,8 -19,8 Z" fill="none" stroke="#0a0610" stroke-width="4" stroke-linejoin="round" stroke-linecap="round"/>
<path d="M-19,8 L19,8 Q22,8 22,11 L22,13 Q22,16 19,16 L-19,16 Q-22,16 -22,13 L-22,11 Q-22,8 -19,8 Z" fill="url(#l7)"/>
<path d="M6,12 L0,18 L-6,12 L0,6 Z" fill="none" stroke="#0a0610" stroke-width="2.4" stroke-linejoin="round" stroke-linecap="round"/>
<path d="M6,12 L0,18 L-6,12 L0,6 Z" fill="#c8962e"/>
<path d="M-36.77,8.32 L-36.44,4.88 L-35.51,1.78 L-33.94,-1.26 L-31.74,-4.19 L-28.93,-6.94 L-25.54,-9.44 L-21.64,-11.63 L-17.31,-13.45 L-12.62,-14.85 L-7.68,-15.81 L-2.58,-16.29 L2.58,-16.29 L7.68,-15.81 L12.62,-14.85 L17.31,-13.45 L21.64,-11.63 L25.54,-9.44 L28.93,-6.94 L31.74,-4.19 L33.94,-1.26 L35.51,1.78 L36.44,4.88 L36.77,8.32 L43.23,7.68 L42.81,3.61 L41.53,-0.67 L39.44,-4.73 L36.61,-8.49 L33.13,-11.9 L29.06,-14.9 L24.49,-17.47 L19.5,-19.57 L14.17,-21.16 L8.6,-22.24 L2.88,-22.78 L-2.88,-22.78 L-8.6,-22.24 L-14.17,-21.16 L-19.5,-19.57 L-24.49,-17.47 L-29.06,-14.9 L-33.13,-11.9 L-36.61,-8.49 L-39.44,-4.73 L-41.53,-0.67 L-42.81,3.61 L-43.23,7.68 Z" fill="none" stroke="#0a0610" stroke-width="4" stroke-linejoin="round" stroke-linecap="round"/>
<path d="M-36.77,8.32 L-36.44,4.88 L-35.51,1.78 L-33.94,-1.26 L-31.74,-4.19 L-28.93,-6.94 L-25.54,-9.44 L-21.64,-11.63 L-17.31,-13.45 L-12.62,-14.85 L-7.68,-15.81 L-2.58,-16.29 L2.58,-16.29 L7.68,-15.81 L12.62,-14.85 L17.31,-13.45 L21.64,-11.63 L25.54,-9.44 L28.93,-6.94 L31.74,-4.19 L33.94,-1.26 L35.51,1.78 L36.44,4.88 L36.77,8.32 L43.23,7.68 L42.81,3.61 L41.53,-0.67 L39.44,-4.73 L36.61,-8.49 L33.13,-11.9 L29.06,-14.9 L24.49,-17.47 L19.5,-19.57 L14.17,-21.16 L8.6,-22.24 L2.88,-22.78 L-2.88,-22.78 L-8.6,-22.24 L-14.17,-21.16 L-19.5,-19.57 L-24.49,-17.47 L-29.06,-14.9 L-33.13,-11.9 L-36.61,-8.49 L-39.44,-4.73 L-41.53,-0.67 L-42.81,3.61 L-43.23,7.68 Z" fill="url(#l8)"/>
<path d="M-37.38,4.33 L-29.78,2.7 L-35.76,-2.27 Z" fill="none" stroke="#0a0610" stroke-width="2.2" stroke-linejoin="round" stroke-linecap="round"/>
<path d="M-37.38,4.33 L-29.78,2.7 L-35.76,-2.27 Z" fill="url(#l9)"/>
<path d="M-31.14,-5.47 L-23.4,-4.64 L-27.53,-11.24 Z" fill="none" stroke="#0a0610" stroke-width="2.2" stroke-linejoin="round" stroke-linecap="round"/>
<path d="M-31.14,-5.47 L-23.4,-4.64 L-27.53,-11.24 Z" fill="url(#l10)"/>
<path d="M-20.05,-12.92 L-13.27,-9.11 L-14.47,-16.8 Z" fill="none" stroke="#0a0610" stroke-width="2.2" stroke-linejoin="round" stroke-linecap="round"/>
<path d="M-20.05,-12.92 L-13.27,-9.11 L-14.47,-16.8 Z" fill="url(#l11)"/>
<path d="M-5.93,-17.23 L-1.9,-10.57 L0.84,-17.86 Z" fill="none" stroke="#0a0610" stroke-width="2.2" stroke-linejoin="round" stroke-linecap="round"/>
<path d="M-5.93,-17.23 L-1.9,-10.57 L0.84,-17.86 Z" fill="url(#l12)"/>
<path d="M9.47,-17.67 L9.51,-9.89 L15.6,-14.74 Z" fill="none" stroke="#0a0610" stroke-width="2.2" stroke-linejoin="round" stroke-linecap="round"/>
<path d="M9.47,-17.67 L9.51,-9.89 L15.6,-14.74 Z" fill="url(#l13)"/>
<path d="M23.61,-13.55 L20.32,-6.5 L27.89,-8.27 Z" fill="none" stroke="#0a0610" stroke-width="2.2" stroke-linejoin="round" stroke-linecap="round"/>
<path d="M23.61,-13.55 L20.32,-6.5 L27.89,-8.27 Z" fill="url(#l14)"/>
<path d="M33.67,-5.53 L28.2,0.01 L35.94,0.88 Z" fill="none" stroke="#0a0610" stroke-width="2.2" stroke-linejoin="round" stroke-linecap="round"/>
<path d="M33.67,-5.53 L28.2,0.01 L35.94,0.88 Z" fill="url(#l15)"/>
<path d="M36.84,11.23 L36.71,12.09 L36.22,12.72 L34.93,13.73 L32.82,14.87 L29.97,16 L26.48,17.04 L22.44,17.96 L17.94,18.73 L13.07,19.32 L7.95,19.72 L2.67,19.92 L-2.67,19.92 L-7.95,19.72 L-13.07,19.32 L-17.94,18.73 L-22.44,17.96 L-26.48,17.04 L-29.97,16 L-32.82,14.87 L-34.93,13.73 L-36.22,12.72 L-36.71,12.09 L-36.84,11.23 L-43.16,12.77 L-42.54,14.96 L-40.81,17.32 L-38.45,19.19 L-35.54,20.77 L-32.09,22.14 L-28.12,23.33 L-23.7,24.34 L-18.87,25.16 L-13.72,25.79 L-8.33,26.21 L-2.79,26.42 L2.79,26.42 L8.33,26.21 L13.72,25.79 L18.87,25.16 L23.7,24.34 L28.12,23.33 L32.09,22.14 L35.54,20.77 L38.45,19.19 L40.81,17.32 L42.54,14.96 L43.16,12.77 Z" fill="none" stroke="#0a0610" stroke-width="4" stroke-linejoin="round" stroke-linecap="round"/>
<path d="M36.84,11.23 L36.71,12.09 L36.22,12.72 L34.93,13.73 L32.82,14.87 L29.97,16 L26.48,17.04 L22.44,17.96 L17.94,18.73 L13.07,19.32 L7.95,19.72 L2.67,19.92 L-2.67,19.92 L-7.95,19.72 L-13.07,19.32 L-17.94,18.73 L-22.44,17.96 L-26.48,17.04 L-29.97,16 L-32.82,14.87 L-34.93,13.73 L-36.22,12.72 L-36.71,12.09 L-36.84,11.23 L-43.16,12.77 L-42.54,14.96 L-40.81,17.32 L-38.45,19.19 L-35.54,20.77 L-32.09,22.14 L-28.12,23.33 L-23.7,24.34 L-18.87,25.16 L-13.72,25.79 L-8.33,26.21 L-2.79,26.42 L2.79,26.42 L8.33,26.21 L13.72,25.79 L18.87,25.16 L23.7,24.34 L28.12,23.33 L32.09,22.14 L35.54,20.77 L38.45,19.19 L40.81,17.32 L42.54,14.96 L43.16,12.77 Z" fill="url(#l16)"/>
<path d="M36.97,11.39 L29.59,13.86 L36.09,18.13 Z" fill="none" stroke="#0a0610" stroke-width="2.2" stroke-linejoin="round" stroke-linecap="round"/>
<path d="M36.97,11.39 L29.59,13.86 L36.09,18.13 Z" fill="url(#l17)"/>
<path d="M30.06,15.24 L22.39,16.54 L28.15,21.77 Z" fill="none" stroke="#0a0610" stroke-width="2.2" stroke-linejoin="round" stroke-linecap="round"/>
<path d="M30.06,15.24 L22.39,16.54 L28.15,21.77 Z" fill="url(#l18)"/>
<path d="M18.58,18 L10.85,17.04 L14.87,23.71 Z" fill="none" stroke="#0a0610" stroke-width="2.2" stroke-linejoin="round" stroke-linecap="round"/>
<path d="M18.58,18 L10.85,17.04 L14.87,23.71 Z" fill="url(#l19)"/>
<path d="M5.65,20.53 L0.9,14.36 L-1.01,21.91 Z" fill="none" stroke="#0a0610" stroke-width="2.2" stroke-linejoin="round" stroke-linecap="round"/>
<path d="M5.65,20.53 L0.9,14.36 L-1.01,21.91 Z" fill="url(#l20)"/>
<path d="M-9.61,23.67 L-6.83,16.4 L-14.26,18.7 Z" fill="none" stroke="#0a0610" stroke-width="2.2" stroke-linejoin="round" stroke-linecap="round"/>
<path d="M-9.61,23.67 L-6.83,16.4 L-14.26,18.7 Z" fill="url(#l21)"/>
<path d="M-24.24,22.67 L-18.87,17.04 L-26.62,16.3 Z" fill="none" stroke="#0a0610" stroke-width="2.2" stroke-linejoin="round" stroke-linecap="round"/>
<path d="M-24.24,22.67 L-18.87,17.04 L-26.62,16.3 Z" fill="url(#l22)"/>
<path d="M-34.13,19.46 L-27.82,14.9 L-35.31,12.77 Z" fill="none" stroke="#0a0610" stroke-width="2.2" stroke-linejoin="round" stroke-linecap="round"/>
<path d="M-34.13,19.46 L-27.82,14.9 L-35.31,12.77 Z" fill="url(#l23)"/>
<circle cx="-40" cy="10" r="5" fill="url(#r24)" stroke="#0a0610" stroke-width="1.8"/>
<circle cx="-40" cy="10" r="1.6" fill="#0a0610"/>
<circle cx="40" cy="10" r="5" fill="url(#r25)" stroke="#0a0610" stroke-width="1.8"/>
<circle cx="40" cy="10" r="1.6" fill="#0a0610"/>
</g>
<g transform="translate(64 44)">
<path d="M0,0 C1.65,0 5.5,-7.8 5.5,-11.7 C5.5,-15.6 1.65,-26 0,-26 C-1.65,-26 -5.5,-15.6 -5.5,-11.7 C-5.5,-7.8 -1.65,0 0,0 Z" fill="none" stroke="#0a0610" stroke-width="2.8" stroke-linejoin="round" stroke-linecap="round"/>
<path d="M0,0 C1.65,0 5.5,-7.8 5.5,-11.7 C5.5,-15.6 1.65,-26 0,-26 C-1.65,-26 -5.5,-15.6 -5.5,-11.7 C-5.5,-7.8 -1.65,0 0,0 Z" fill="url(#l26)"/>
<path d="M0,2 L0,-23.4" fill="none" stroke="#12301a" stroke-width="0.8" stroke-linejoin="round" stroke-linecap="round"/>
<path d="M0,-7.8 L3.3,-10.92 M0,-7.8 L-3.3,-10.92" fill="none" stroke="#12301a" stroke-width="0.6" opacity="0.7" stroke-linejoin="round" stroke-linecap="round"/>
<path d="M0,-13 L3.3,-16.12 M0,-13 L-3.3,-16.12" fill="none" stroke="#12301a" stroke-width="0.6" opacity="0.7" stroke-linejoin="round" stroke-linecap="round"/>
<path d="M0,-18.2 L3.3,-21.32 M0,-18.2 L-3.3,-21.32" fill="none" stroke="#12301a" stroke-width="0.6" opacity="0.7" stroke-linejoin="round" stroke-linecap="round"/>
</g>
</g>
<rect x="0" y="0" width="128" height="128" fill="url(#r27)"/>
<path d="M0,0 L128,0 L128,128 L0,128 Z M10,64 A54,54 0 1 1 118,64 A54,54 0 1 1 10,64 Z" fill="#000000" opacity="0.55" fill-rule="evenodd"/>
<path d="M0,0 L128,0 L128,128 L0,128 Z M3,3 L3,125 L125,125 L125,3 Z" fill="#050307" fill-rule="evenodd"/>
<circle cx="64" cy="64" r="54" fill="none" stroke="#000000" stroke-width="5.6"/>
<circle cx="64" cy="64" r="54" fill="none" stroke="url(#l28)" stroke-width="2.6"/>
<circle cx="64" cy="64" r="51.5" fill="none" stroke="#000000" stroke-width="1.2" opacity="0.8"/>
<circle cx="64" cy="64" r="54.7" fill="none" stroke="#e6dca2" stroke-width="0.6" opacity="0.4"/>
</svg>
