<svg xmlns="http://www.w3.org/2000/svg" width="128" height="128" viewBox="0 0 128 128">
<defs><radialGradient id="r1" gradientUnits="userSpaceOnUse" cx="64" cy="64" r="92"><stop offset="0" stop-color="#3a1406"/><stop offset="0.55" stop-color="#1c0a07"/><stop offset="1" stop-color="#040208"/></radialGradient><radialGradient id="r2" gradientUnits="userSpaceOnUse" cx="103.55" cy="79.35" r="45.93"><stop offset="0" stop-color="#ff6a14" stop-opacity="0.22"/><stop offset="1" stop-color="#ff6a14" stop-opacity="0"/></radialGradient><radialGradient id="r3" gradientUnits="userSpaceOnUse" cx="69.46" cy="22.79" r="44.43"><stop offset="0" stop-color="#ff6a14" stop-opacity="0.22"/><stop offset="1" stop-color="#ff6a14" stop-opacity="0"/></radialGradient><radialGradient id="r4" gradientUnits="userSpaceOnUse" cx="39.46" cy="36.31" r="32.56"><stop offset="0" stop-color="#ff6a14" stop-opacity="0.22"/><stop offset="1" stop-color="#ff6a14" stop-opacity="0"/></radialGradient><radialGradient id="r5" gradientUnits="userSpaceOnUse" cx="47.4" cy="67.48" r="40.33"><stop offset="0" stop-color="#ffd070" stop-opacity="0.22"/><stop offset="1" stop-color="#ffd070" stop-opacity="0"/></radialGradient><radialGradient id="r6" gradientUnits="userSpaceOnUse" cx="73.51" cy="98.11" r="37.83"><stop offset="0" stop-color="#ffd070" stop-opacity="0.22"/><stop offset="1" stop-color="#ffd070" stop-opacity="0"/></radialGradient><radialGradient id="r7" gradientUnits="userSpaceOnUse" cx="64" cy="64" r="56"><stop offset="0" stop-color="#ff8a20" stop-opacity="0"/><stop offset="0.62" stop-color="#ff8a20" stop-opacity="0"/><stop offset="0.78" stop-color="#ff8a20" stop-opacity="0.38"/><stop offset="0.86" stop-color="#ff8a20" stop-opacity="0.5"/><stop offset="1" stop-color="#ff8a20" stop-opacity="0"/></radialGradient><linearGradient id="l8" gradientUnits="userSpaceOnUse" x1="0" y1="-58" x2="0" y2="18"><stop offset="0" stop-color="#7a1206"/><stop offset="0.6" stop-color="#da4c17"/><stop offset="1" stop-color="#7a1206"/></linearGradient><linearGradient id="l9" gradientUnits="userSpaceOnUse" x1="0" y1="-44" x2="0" y2="14"><stop offset="0" stop-color="#f2551a"/><stop offset="1" stop-color="#f58053"/></linearGradient><linearGradient id="l10" gradientUnits="userSpaceOnUse" x1="0" y1="-25" x2="0" y2="14"><stop offset="0" stop-color="#ffd34a"/><stop offset="1" stop-color="#ffe9a4"/></linearGradient><linearGradient id="l11" gradientUnits="userSpaceOnUse" x1="0" y1="-58" x2="0" y2="18"><stop offset="0" stop-color="#7a1206"/><stop offset="0.6" stop-color="#da4c17"/><stop offset="1" stop-color="#7a1206"/></linearGradient><linearGradient id="l12" gradientUnits="userSpaceOnUse" x1="0" y1="-44" x2="0" y2="14"><stop offset="0" stop-color="#f2551a"/><stop offset="1" stop-color="#f58053"/></linearGradient><linearGradient id="l13" gradientUnits="userSpaceOnUse" x1="0" y1="-25" x2="0" y2="14"><stop offset="0" stop-color="#ffd34a"/><stop offset="1" stop-color="#ffe9a4"/></linearGradient><linearGradient id="l14" gradientUnits="userSpaceOnUse" x1="0" y1="-58" x2="0" y2="18"><stop offset="0" stop-color="#7a1206"/><stop offset="0.6" stop-color="#da4c17"/><stop offset="1" stop-color="#7a1206"/></linearGradient><linearGradient id="l15" gradientUnits="userSpaceOnUse" x1="0" y1="-44" x2="0" y2="14"><stop offset="0" stop-color="#f2551a"/><stop offset="1" stop-color="#f58053"/></linearGradient><linearGradient id="l16" gradientUnits="userSpaceOnUse" x1="0" y1="-25" x2="0" y2="14"><stop offset="0" stop-color="#ffd34a"/><stop offset="1" stop-color="#ffe9a4"/></linearGradient><linearGradient id="l17" gradientUnits="userSpaceOnUse" x1="0" y1="-58" x2="0" y2="18"><stop offset="0" stop-color="#7a1206"/><stop offset="0.6" stop-color="#da4c17"/><stop offset="1" stop-color="#7a1206"/></linearGradient><linearGradient id="l18" gradientUnits="userSpaceOnUse" x1="0" y1="-44" x2="0" y2="14"><stop offset="0" stop-color="#f2551a"/><stop offset="1" stop-color="#f58053"/></linearGradient><linearGradient id="l19" gradientUnits="userSpaceOnUse" x1="0" y1="-25" x2="0" y2="14"><stop offset="0" stop-color="#ffd34a"/><stop offset="1" stop-color="#ffe9a4"/></linearGradient><linearGradient id="l20" gradientUnits="userSpaceOnUse" x1="0" y1="-58" x2="0" y2="18"><stop offset="0" stop-color="#7a1206"/><stop offset="0.6" stop-color="#da4c17"/><stop offset="1" stop-color="#7a1206"/></linearGradient><linearGradient id="l21" gradientUnits="userSpaceOnUse" x1="0" y1="-44" x2="0" y2="14"><stop offset="0" stop-color="#f2551a"/><stop offset="1" stop-color="#f58053"/></linearGradient><linearGradient id="l22" gradientUnits="userSpaceOnUse" x1="0" y1="-25" x2="0" y2="14"><stop offset="0" stop-color="#ffd34a"/><stop offset="1" stop-color="#ffe9a4"/></linearGradient><linearGradient id="l23" gradientUnits="userSpaceOnUse" x1="0" y1="-58" x2="0" y2="18"><stop offset="0" stop-color="#7a1206"/><stop offset="0.6" stop-color="#da4c17"/><stop offset="1" stop-color="#7a1206"/></linearGradient><linearGradient id="l24" gradientUnits="userSpaceOnUse" x1="0" y1="-44" x2="0" y2="14"><stop offset="0" stop-color="#f2551a"/><stop offset="1" stop-color="#f58053"/></linearGradient><linearGradient id="l25" gradientUnits="userSpaceOnUse" x1="0" y1="-25" x2="0" y2="14"><stop offset="0" stop-color="#ffd34a"/><stop offset="1" stop-color="#ffe9a4"/></linearGradient><linearGradient id="l26" gradientUnits="userSpaceOnUse" x1="0" y1="-58" x2="0" y2="18"><stop offset="0" stop-color="#7a1206"/><stop offset="0.6" stop-color="#da4c17"/><stop offset="1" stop-color="#7a1206"/></linearGradient><linearGradient id="l27" gradientUnits="userSpaceOnUse" x1="0" y1="-44" x2="0" y2="14"><stop offset="0" stop-color="#f2551a"/><stop offset="1" stop-color="#f58053"/></linearGradient><linearGradient id="l28" gradientUnits="userSpaceOnUse" x1="0" y1="-25" x2="0" y2="14"><stop offset="0" stop-color="#ffd34a"/><stop offset="1" stop-color="#ffe9a4"/></linearGradient><linearGradient id="l29" gradientUnits="userSpaceOnUse" x1="0" y1="-58" x2="0" y2="18"><stop offset="0" stop-color="#7a1206"/><stop offset="0.6" stop-color="#da4c17"/><stop offset="1" stop-color="#7a1206"/></linearGradient><linearGradient id="l30" gradientUnits="userSpaceOnUse" x1="0" y1="-44" x2="0" y2="14"><stop offset="0" stop-color="#f2551a"/><stop offset="1" stop-color="#f58053"/></linearGradient><linearGradient id="l31" gradientUnits="userSpaceOnUse" x1="0" y1="-25" x2="0" y2="14"><stop offset="0" stop-color="#ffd34a"/><stop offset="1" stop-color="#ffe9a4"/></linearGradient><linearGradient id="l32" gradientUnits="userSpaceOnUse" x1="0" y1="-58" x2="0" y2="18"><stop offset="0" stop-color="#7a1206"/><stop offset="0.6" stop-color="#da4c17"/><stop offset="1" stop-color="#7a1206"/></linearGradient><linearGradient id="l33" gradientUnits="userSpaceOnUse" x1="0" y1="-44" x2="0" y2="14"><stop offset="0" stop-color="#f2551a"/><stop offset="1" stop-color="#f58053"/></linearGradient><linearGradient id="l34" gradientUnits="userSpaceOnUse" x1="0" y1="-25" x2="0" y2="14"><stop offset="0" stop-color="#ffd34a"/><stop offset="1" stop-color="#ffe9a4"/></linearGradient><linearGradient id="l35" gradientUnits="userSpaceOnUse" x1="0" y1="-58" x2="0" y2="18"><stop offset="0" stop-color="#7a1206"/><stop offset="0.6" stop-color="#da4c17"/><stop offset="1" stop-color="#7a1206"/></linearGradient><linearGradient id="l36" gradientUnits="userSpaceOnUse" x1="0" y1="-44" x2="0" y2="14"><stop offset="0" stop-color="#f2551a"/><stop offset="1" stop-color="#f58053"/></linearGradient><linearGradient id="l37" gradientUnits="userSpaceOnUse" x1="0" y1="-25" x2="0" y2="14"><stop offset="0" stop-color="#ffd34a"/><stop offset="1" stop-color="#ffe9a4"/></linearGradient><radialGradient id="r38" gradientUnits="userSpaceOnUse" cx="64" cy="72.84" r="27.28"><stop offset="0" stop-color="#ffd070" stop-opacity="0.55"/><stop offset="0.35" stop-color="#ffd070" stop-opacity="0.3"/><stop offset="0.7" stop-color="#ffd070" stop-opacity="0.09"/><stop offset="1" stop-color="#ffd070" stop-opacity="0"/></radialGradient><linearGradient id="l39" gradientUnits="userSpaceOnUse" x1="64" y1="48.04" x2="64" y2="95.16"><stop offset="0" stop-color="#b84a0a"/><stop offset="0.6" stop-color="#e69e3a"/><stop offset="1" stop-color="#b84a0a"/></linearGradient><linearGradient id="l40" gradientUnits="userSpaceOnUse" x1="64" y1="56.72" x2="64" y2="92.68"><stop offset="0" stop-color="#ffb040"/><stop offset="1" stop-color="#ffc470"/></linearGradient><linearGradient id="l41" gradientUnits="userSpaceOnUse" x1="64" y1="68.5" x2="64" y2="92.68"><stop offset="0" stop-color="#fff4c0"/><stop offset="1" stop-color="#fffae0"/></linearGradient><radialGradient id="r42" gradientUnits="userSpaceOnUse" cx="64" cy="64" r="92"><stop offset="0" stop-color="#000000" stop-opacity="0"/><stop offset="0.58" stop-color="#000000" stop-opacity="0"/><stop offset="0.85" stop-color="#000000" stop-opacity="0.25"/><stop offset="1" stop-color="#000000" stop-opacity="0.45"/></radialGradient><linearGradient id="l43" gradientUnits="userSpaceOnUse" x1="10" y1="4" x2="118" y2="124"><stop offset="0" stop-color="#ffe0a0"/><stop offset="0.4" stop-color="#c8703a"/><stop offset="0.75" stop-color="#4a120a"/><stop offset="1" stop-color="#2c0b06"/></linearGradient><radialGradient id="r44" gradientUnits="userSpaceOnUse" cx="64" cy="2" r="7"><stop offset="0" stop-color="#ff8a20" stop-opacity="0.7"/><stop offset="0.35" stop-color="#ff8a20" stop-opacity="0.39"/><stop offset="0.7" stop-color="#ff8a20" stop-opacity="0.11"/><stop offset="1" stop-color="#ff8a20" stop-opacity="0"/></radialGradient><linearGradient id="l45" gradientUnits="userSpaceOnUse" x1="61" y1="-2" x2="67" y2="6"><stop offset="0" stop-color="#ffffff"/><stop offset="0.4" stop-color="#ff8a20"/><stop offset="1" stop-color="#804510"/></linearGradient><radialGradient id="r46" gradientUnits="userSpaceOnUse" cx="117.69" cy="33" r="7"><stop offset="0" stop-color="#ff8a20" stop-opacity="0.7"/><stop offset="0.35" stop-color="#ff8a20" stop-opacity="0.39"/><stop offset="0.7" stop-color="#ff8a20" stop-opacity="0.11"/><stop offset="1" stop-color="#ff8a20" stop-opacity="0"/></radialGradient><linearGradient id="l47" gradientUnits="userSpaceOnUse" x1="114.69" y1="29" x2="120.69" y2="37"><stop offset="0" stop-color="#ffffff"/><stop offset="0.4" stop-color="#ff8a20"/><stop offset="1" stop-color="#804510"/></linearGradient><radialGradient id="r48" gradientUnits="userSpaceOnUse" cx="117.69" cy="95" r="7"><stop offset="0" stop-color="#ff8a20" stop-opacity="0.7"/><stop offset="0.35" stop-color="#ff8a20" stop-opacity="0.39"/><stop offset="0.7" stop-color="#ff8a20" stop-opacity="0.11"/><stop offset="1" stop-color="#ff8a20" stop-opacity="0"/></radialGradient><linearGradient id="l49" gradientUnits="userSpaceOnUse" x1="114.69" y1="91" x2="120.69" y2="99"><stop offset="0" stop-color="#ffffff"/><stop offset="0.4" stop-color="#ff8a20"/><stop offset="1" stop-color="#804510"/></linearGradient><radialGradient id="r50" gradientUnits="userSpaceOnUse" cx="64" cy="126" r="7"><stop offset="0" stop-color="#ff8a20" stop-opacity="0.7"/><stop offset="0.35" stop-color="#ff8a20" stop-opacity="0.39"/><stop offset="0.7" stop-color="#ff8a20" stop-opacity="0.11"/><stop offset="1" stop-color="#ff8a20" stop-opacity="0"/></radialGradient><linearGradient id="l51" gradientUnits="userSpaceOnUse" x1="61" y1="122" x2="67" y2="130"><stop offset="0" stop-color="#ffffff"/><stop offset="0.4" stop-color="#ff8a20"/><stop offset="1" stop-color="#804510"/></linearGradient><radialGradient id="r52" gradientUnits="userSpaceOnUse" cx="10.31" cy="95" r="7"><stop offset="0" stop-color="#ff8a20" stop-opacity="0.7"/><stop offset="0.35" stop-color="#ff8a20" stop-opacity="0.39"/><stop offset="0.7" stop-color="#ff8a20" stop-opacity="0.11"/><stop offset="1" stop-color="#ff8a20" stop-opacity="0"/></radialGradient><linearGradient id="l53" gradientUnits="userSpaceOnUse" x1="7.31" y1="91" x2="13.31" y2="99"><stop offset="0" stop-color="#ffffff"/><stop offset="0.4" stop-color="#ff8a20"/><stop offset="1" stop-color="#804510"/></linearGradient><radialGradient id="r54" gradientUnits="userSpaceOnUse" cx="10.31" cy="33" r="7"><stop offset="0" stop-color="#ff8a20" stop-opacity="0.7"/><stop offset="0.35" stop-color="#ff8a20" stop-opacity="0.39"/><stop offset="0.7" stop-color="#ff8a20" stop-opacity="0.11"/><stop offset="1" stop-color="#ff8a20" stop-opacity="0"/></radialGradient><linearGradient id="l55" gradientUnits="userSpaceOnUse" x1="7.31" y1="29" x2="13.31" y2="37"><stop offset="0" stop-color="#ffffff"/><stop offset="0.4" stop-color="#ff8a20"/><stop offset="1" stop-color="#804510"/></linearGradient></defs>
<rect x="0" y="0" width="128" height="128" fill="url(#r1)"/>
<circle cx="103.55" cy="79.35" r="45.93" fill="url(#r2)"/>
<circle cx="69.46" cy="22.79" r="44.43" fill="url(#r3)"/>
<circle cx="39.46" cy="36.31" r="32.56" fill="url(#r4)"/>
<circle cx="47.4" cy="67.48" r="40.33" fill="url(#r5)"/>
<circle cx="73.51" cy="98.11" r="37.83" fill="url(#r6)"/>
<path d="M-10,63.73 L140,-4.95" fill="none" stroke="#ffffff" stroke-width="9.61" opacity="0.02" stroke-linejoin="round" stroke-linecap="round"/>
<path d="M-10,116.17 L140,55.57" fill="none" stroke="#ffffff" stroke-width="8.76" opacity="0.02" stroke-linejoin="round" stroke-linecap="round"/>
<path d="M-10,22.1 L140,-38.76" fill="none" stroke="#ffffff" stroke-width="7.28" opacity="0.02" stroke-linejoin="round" stroke-linecap="round"/>
<path d="M-10,74.68 L140,23.97" fill="none" stroke="#ffffff" stroke-width="9.99" opacity="0.02" stroke-linejoin="round" stroke-linecap="round"/>
<path d="M-10,76.24 L140,22.87" fill="none" stroke="#ffffff" stroke-width="4.44" opacity="0.02" stroke-linejoin="round" stroke-linecap="round"/>
<path d="M-10,109.12 L140,58.42" fill="none" stroke="#ffffff" stroke-width="5.9" opacity="0.02" stroke-linejoin="round" stroke-linecap="round"/>
<path d="M-10,106.63 L140,54.25" fill="none" stroke="#ffffff" stroke-width="6.34" opacity="0.02" stroke-linejoin="round" stroke-linecap="round"/>
<circle cx="64" cy="64" r="56" fill="url(#r7)"/>
<path d="M111,64 L120,64" fill="none" stroke="#ffad63" stroke-width="1.4" opacity="0.55" stroke-linejoin="round" stroke-linecap="round"/>
<path d="M110.1,73.17 L115,74.14" fill="none" stroke="#ffad63" stroke-width="1.4" opacity="0.55" stroke-linejoin="round" stroke-linecap="round"/>
<path d="M107.42,81.99 L115.74,85.43" fill="none" stroke="#ffad63" stroke-width="1.4" opacity="0.55" stroke-linejoin="round" stroke-linecap="round"/>
<path d="M103.08,90.11 L107.24,92.89" fill="none" stroke="#ffad63" stroke-width="1.4" opacity="0.55" stroke-linejoin="round" stroke-linecap="round"/>
<path d="M97.23,97.23 L103.6,103.6" fill="none" stroke="#ffad63" stroke-width="1.4" opacity="0.55" stroke-linejoin="round" stroke-linecap="round"/>
<path d="M90.11,103.08 L92.89,107.24" fill="none" stroke="#ffad63" stroke-width="1.4" opacity="0.55" stroke-linejoin="round" stroke-linecap="round"/>
<path d="M81.99,107.42 L85.43,115.74" fill="none" stroke="#ffad63" stroke-width="1.4" opacity="0.55" stroke-linejoin="round" stroke-linecap="round"/>
<path d="M73.17,110.1 L74.14,115" fill="none" stroke="#ffad63" stroke-width="1.4" opacity="0.55" stroke-linejoin="round" stroke-linecap="round"/>
<path d="M64,111 L64,120" fill="none" stroke="#ffad63" stroke-width="1.4" opacity="0.55" stroke-linejoin="round" stroke-linecap="round"/>
<path d="M54.83,110.1 L53.86,115" fill="none" stroke="#ffad63" stroke-width="1.4" opacity="0.55" stroke-linejoin="round" stroke-linecap="round"/>
<path d="M46.01,107.42 L42.57,115.74" fill="none" stroke="#ffad63" stroke-width="1.4" opacity="0.55" stroke-linejoin="round" stroke-linecap="round"/>
<path d="M37.89,103.08 L35.11,107.24" fill="none" stroke="#ffad63" stroke-width="1.4" opacity="0.55" stroke-linejoin="round" stroke-linecap="round"/>
<path d="M30.77,97.23 L24.4,103.6" fill="none" stroke="#ffad63" stroke-width="1.4" opacity="0.55" stroke-linejoin="round" stroke-linecap="round"/>
<path d="M24.92,90.11 L20.76,92.89" fill="none" stroke="#ffad63" stroke-width="1.4" opacity="0.55" stroke-linejoin="round" stroke-linecap="round"/>
<path d="M20.58,81.99 L12.26,85.43" fill="none" stroke="#ffad63" stroke-width="1.4" opacity="0.55" stroke-linejoin="round" stroke-linecap="round"/>
<path d="M17.9,73.17 L13,74.14" fill="none" stroke="#ffad63" stroke-width="1.4" opacity="0.55" stroke-linejoin="round" stroke-linecap="round"/>
<path d="M17,64 L8,64" fill="none" stroke="#ffad63" stroke-width="1.4" opacity="0.55" stroke-linejoin="round" stroke-linecap="round"/>
<path d="M17.9,54.83 L13,53.86" fill="none" stroke="#ffad63" stroke-width="1.4" opacity="0.55" stroke-linejoin="round" stroke-linecap="round"/>
<path d="M20.58,46.01 L12.26,42.57" fill="none" stroke="#ffad63" stroke-width="1.4" opacity="0.55" stroke-linejoin="round" stroke-linecap="round"/>
<path d="M24.92,37.89 L20.76,35.11" fill="none" stroke="#ffad63" stroke-width="1.4" opacity="0.55" stroke-linejoin="round" stroke-linecap="round"/>
<path d="M30.77,30.77 L24.4,24.4" fill="none" stroke="#ffad63" stroke-width="1.4" opacity="0.55" stroke-linejoin="round" stroke-linecap="round"/>
<path d="M37.89,24.92 L35.11,20.76" fill="none" stroke="#ffad63" stroke-width="1.4" opacity="0.55" stroke-linejoin="round" stroke-linecap="round"/>
<path d="M46.01,20.58 L42.57,12.26" fill="none" stroke="#ffad63" stroke-width="1.4" opacity="0.55" stroke-linejoin="round" stroke-linecap="round"/>
<path d="M54.83,17.9 L53.86,13" fill="none" stroke="#ffad63" stroke-width="1.4" opacity="0.55" stroke-linejoin="round" stroke-linecap="round"/>
<path d="M64,17 L64,8" fill="none" stroke="#ffad63" stroke-width="1.4" opacity="0.55" stroke-linejoin="round" stroke-linecap="round"/>
<path d="M73.17,17.9 L74.14,13" fill="none" stroke="#ffad63" stroke-width="1.4" opacity="0.55" stroke-linejoin="round" stroke-linecap="round"/>
<path d="M81.99,20.58 L85.43,12.26" fill="none" stroke="#ffad63" stroke-width="1.4" opacity="0.55" stroke-linejoin="round" stroke-linecap="round"/>
<path d="M90.11,24.92 L92.89,20.76" fill="none" stroke="#ffad63" stroke-width="1.4" opacity="0.55" stroke-linejoin="round" stroke-linecap="round"/>
<path d="M97.23,30.77 L103.6,24.4" fill="none" stroke="#ffad63" stroke-width="1.4" opacity="0.55" stroke-linejoin="round" stroke-linecap="round"/>
<path d="M103.08,37.89 L107.24,35.11" fill="none" stroke="#ffad63" stroke-width="1.4" opacity="0.55" stroke-linejoin="round" stroke-linecap="round"/>
<path d="M107.42,46.01 L115.74,42.57" fill="none" stroke="#ffad63" stroke-width="1.4" opacity="0.55" stroke-linejoin="round" stroke-linecap="round"/>
<path d="M110.1,54.83 L115,53.86" fill="none" stroke="#ffad63" stroke-width="1.4" opacity="0.55" stroke-linejoin="round" stroke-linecap="round"/>
<circle cx="64" cy="64" r="44" fill="none" stroke="#000000" stroke-width="5" opacity="0.55"/>
<circle cx="64" cy="64" r="44" fill="none" stroke="#ff8a20" stroke-width="3.2"/>
<circle cx="64" cy="64" r="44" fill="none" stroke="#ffe2c7" stroke-width="1.1"/>
<circle cx="64" cy="64" r="39" fill="none" stroke="#ff8a20" stroke-width="0.8" opacity="0.55"/>
<g transform="translate(64 64) scale(0.74) translate(-64 -64)">
<g transform="translate(64 30) scale(0.26 0.26)">
<path d="M0,-58 C1.5,-34.8 -18,-21.6 -18,0 C-18,13.5 -9.9,18 0,18 C9.9,18 18,13.5 18,0 C18,-21.6 10.5,-34.8 0,-58 Z" fill="none" stroke="#0a0610" stroke-width="3.6" stroke-linejoin="round" stroke-linecap="round"/>
<path d="M0,-58 C1.5,-34.8 -18,-21.6 -18,0 C-18,13.5 -9.9,18 0,18 C9.9,18 18,13.5 18,0 C18,-21.6 10.5,-34.8 0,-58 Z" fill="url(#l8)"/>
<path d="M0,-44 C0.62,-25.6 -13.5,-14.2 -13.5,2 C-13.5,12.12 -7.43,15.5 0,15.5 C7.43,15.5 13.5,12.12 13.5,2 C13.5,-14.2 7.38,-25.6 0,-44 Z" fill="url(#l9)"/>
<path d="M0,-25 C-0.25,-13 -9,-5.8 -9,5 C-9,11.75 -4.95,14 0,14 C4.95,14 9,11.75 9,5 C9,-5.8 4.25,-13 0,-25 Z" fill="url(#l10)"/>
<path d="M0,-8 C-1.25,-1.6 -5,2 -5,8 C-5,11.75 -2.75,13 0,13 C2.75,13 5,11.75 5,8 C5,2 1.25,-1.6 0,-8 Z" fill="#fffbe8" opacity="0.9"/>
</g>
<g transform="translate(83.98 36.49) rotate(36) scale(0.26 0.26)">
<path d="M0,-58 C1.5,-34.8 -18,-21.6 -18,0 C-18,13.5 -9.9,18 0,18 C9.9,18 18,13.5 18,0 C18,-21.6 10.5,-34.8 0,-58 Z" fill="none" stroke="#0a0610" stroke-width="3.6" stroke-linejoin="round" stroke-linecap="round"/>
<path d="M0,-58 C1.5,-34.8 -18,-21.6 -18,0 C-18,13.5 -9.9,18 0,18 C9.9,18 18,13.5 18,0 C18,-21.6 10.5,-34.8 0,-58 Z" fill="url(#l11)"/>
<path d="M0,-44 C0.62,-25.6 -13.5,-14.2 -13.5,2 C-13.5,12.12 -7.43,15.5 0,15.5 C7.43,15.5 13.5,12.12 13.5,2 C13.5,-14.2 7.38,-25.6 0,-44 Z" fill="url(#l12)"/>
<path d="M0,-25 C-0.25,-13 -9,-5.8 -9,5 C-9,11.75 -4.95,14 0,14 C4.95,14 9,11.75 9,5 C9,-5.8 4.25,-13 0,-25 Z" fill="url(#l13)"/>
<path d="M0,-8 C-1.25,-1.6 -5,2 -5,8 C-5,11.75 -2.75,13 0,13 C2.75,13 5,11.75 5,8 C5,2 1.25,-1.6 0,-8 Z" fill="#fffbe8" opacity="0.9"/>
</g>
<g transform="translate(96.34 53.49) rotate(72) scale(0.26 0.26)">
<path d="M0,-58 C1.5,-34.8 -18,-21.6 -18,0 C-18,13.5 -9.9,18 0,18 C9.9,18 18,13.5 18,0 C18,-21.6 10.5,-34.8 0,-58 Z" fill="none" stroke="#0a0610" stroke-width="3.6" stroke-linejoin="round" stroke-linecap="round"/>
<path d="M0,-58 C1.5,-34.8 -18,-21.6 -18,0 C-18,13.5 -9.9,18 0,18 C9.9,18 18,13.5 18,0 C18,-21.6 10.5,-34.8 0,-58 Z" fill="url(#l14)"/>
<path d="M0,-44 C0.62,-25.6 -13.5,-14.2 -13.5,2 C-13.5,12.12 -7.43,15.5 0,15.5 C7.43,15.5 13.5,12.12 13.5,2 C13.5,-14.2 7.38,-25.6 0,-44 Z" fill="url(#l15)"/>
<path d="M0,-25 C-0.25,-13 -9,-5.8 -9,5 C-9,11.75 -4.95,14 0,14 C4.95,14 9,11.75 9,5 C9,-5.8 4.25,-13 0,-25 Z" fill="url(#l16)"/>
<path d="M0,-8 C-1.25,-1.6 -5,2 -5,8 C-5,11.75 -2.75,13 0,13 C2.75,13 5,11.75 5,8 C5,2 1.25,-1.6 0,-8 Z" fill="#fffbe8" opacity="0.9"/>
</g>
<g transform="translate(96.34 74.51) rotate(108) scale(0.26 0.26)">
<path d="M0,-58 C1.5,-34.8 -18,-21.6 -18,0 C-18,13.5 -9.9,18 0,18 C9.9,18 18,13.5 18,0 C18,-21.6 10.5,-34.8 0,-58 Z" fill="none" stroke="#0a0610" stroke-width="3.6" stroke-linejoin="round" stroke-linecap="round"/>
<path d="M0,-58 C1.5,-34.8 -18,-21.6 -18,0 C-18,13.5 -9.9,18 0,18 C9.9,18 18,13.5 18,0 C18,-21.6 10.5,-34.8 0,-58 Z" fill="url(#l17)"/>
<path d="M0,-44 C0.62,-25.6 -13.5,-14.2 -13.5,2 C-13.5,12.12 -7.43,15.5 0,15.5 C7.43,15.5 13.5,12.12 13.5,2 C13.5,-14.2 7.38,-25.6 0,-44 Z" fill="url(#l18)"/>
<path d="M0,-25 C-0.25,-13 -9,-5.8 -9,5 C-9,11.75 -4.95,14 0,14 C4.95,14 9,11.75 9,5 C9,-5.8 4.25,-13 0,-25 Z" fill="url(#l19)"/>
<path d="M0,-8 C-1.25,-1.6 -5,2 -5,8 C-5,11.75 -2.75,13 0,13 C2.75,13 5,11.75 5,8 C5,2 1.25,-1.6 0,-8 Z" fill="#fffbe8" opacity="0.9"/>
</g>
<g transform="translate(83.98 91.51) rotate(144) scale(0.26 0.26)">
<path d="M0,-58 C1.5,-34.8 -18,-21.6 -18,0 C-18,13.5 -9.9,18 0,18 C9.9,18 18,13.5 18,0 C18,-21.6 10.5,-34.8 0,-58 Z" fill="none" stroke="#0a0610" stroke-width="3.6" stroke-linejoin="round" stroke-linecap="round"/>
<path d="M0,-58 C1.5,-34.8 -18,-21.6 -18,0 C-18,13.5 -9.9,18 0,18 C9.9,18 18,13.5 18,0 C18,-21.6 10.5,-34.8 0,-58 Z" fill="url(#l20)"/>
<path d="M0,-44 C0.62,-25.6 -13.5,-14.2 -13.5,2 C-13.5,12.12 -7.43,15.5 0,15.5 C7.43,15.5 13.5,12.12 13.5,2 C13.5,-14.2 7.38,-25.6 0,-44 Z" fill="url(#l21)"/>
<path d="M0,-25 C-0.25,-13 -9,-5.8 -9,5 C-9,11.75 -4.95,14 0,14 C4.95,14 9,11.75 9,5 C9,-5.8 4.25,-13 0,-25 Z" fill="url(#l22)"/>
<path d="M0,-8 C-1.25,-1.6 -5,2 -5,8 C-5,11.75 -2.75,13 0,13 C2.75,13 5,11.75 5,8 C5,2 1.25,-1.6 0,-8 Z" fill="#fffbe8" opacity="0.9"/>
</g>
<g transform="translate(64 98) rotate(180) scale(0.26 0.26)">
<path d="M0,-58 C1.5,-34.8 -18,-21.6 -18,0 C-18,13.5 -9.9,18 0,18 C9.9,18 18,13.5 18,0 C18,-21.6 10.5,-34.8 0,-58 Z" fill="none" stroke="#0a0610" stroke-width="3.6" stroke-linejoin="round" stroke-linecap="round"/>
<path d="M0,-58 C1.5,-34.8 -18,-21.6 -18,0 C-18,13.5 -9.9,18 0,18 C9.9,18 18,13.5 18,0 C18,-21.6 10.5,-34.8 0,-58 Z" fill="url(#l23)"/>
<path d="M0,-44 C0.62,-25.6 -13.5,-14.2 -13.5,2 C-13.5,12.12 -7.43,15.5 0,15.5 C7.43,15.5 13.5,12.12 13.5,2 C13.5,-14.2 7.38,-25.6 0,-44 Z" fill="url(#l24)"/>
<path d="M0,-25 C-0.25,-13 -9,-5.8 -9,5 C-9,11.75 -4.95,14 0,14 C4.95,14 9,11.75 9,5 C9,-5.8 4.25,-13 0,-25 Z" fill="url(#l25)"/>
<path d="M0,-8 C-1.25,-1.6 -5,2 -5,8 C-5,11.75 -2.75,13 0,13 C2.75,13 5,11.75 5,8 C5,2 1.25,-1.6 0,-8 Z" fill="#fffbe8" opacity="0.9"/>
</g>
<g transform="translate(44.02 91.51) rotate(216) scale(0.26 0.26)">
<path d="M0,-58 C1.5,-34.8 -18,-21.6 -18,0 C-18,13.5 -9.9,18 0,18 C9.9,18 18,13.5 18,0 C18,-21.6 10.5,-34.8 0,-58 Z" fill="none" stroke="#0a0610" stroke-width="3.6" stroke-linejoin="round" stroke-linecap="round"/>
<path d="M0,-58 C1.5,-34.8 -18,-21.6 -18,0 C-18,13.5 -9.9,18 0,18 C9.9,18 18,13.5 18,0 C18,-21.6 10.5,-34.8 0,-58 Z" fill="url(#l26)"/>
<path d="M0,-44 C0.62,-25.6 -13.5,-14.2 -13.5,2 C-13.5,12.12 -7.43,15.5 0,15.5 C7.43,15.5 13.5,12.12 13.5,2 C13.5,-14.2 7.38,-25.6 0,-44 Z" fill="url(#l27)"/>
<path d="M0,-25 C-0.25,-13 -9,-5.8 -9,5 C-9,11.75 -4.95,14 0,14 C4.95,14 9,11.75 9,5 C9,-5.8 4.25,-13 0,-25 Z" fill="url(#l28)"/>
<path d="M0,-8 C-1.25,-1.6 -5,2 -5,8 C-5,11.75 -2.75,13 0,13 C2.75,13 5,11.75 5,8 C5,2 1.25,-1.6 0,-8 Z" fill="#fffbe8" opacity="0.9"/>
</g>
<g transform="translate(31.66 74.51) rotate(252) scale(0.26 0.26)">
<path d="M0,-58 C1.5,-34.8 -18,-21.6 -18,0 C-18,13.5 -9.9,18 0,18 C9.9,18 18,13.5 18,0 C18,-21.6 10.5,-34.8 0,-58 Z" fill="none" stroke="#0a0610" stroke-width="3.6" stroke-linejoin="round" stroke-linecap="round"/>
<path d="M0,-58 C1.5,-34.8 -18,-21.6 -18,0 C-18,13.5 -9.9,18 0,18 C9.9,18 18,13.5 18,0 C18,-21.6 10.5,-34.8 0,-58 Z" fill="url(#l29)"/>
<path d="M0,-44 C0.62,-25.6 -13.5,-14.2 -13.5,2 C-13.5,12.12 -7.43,15.5 0,15.5 C7.43,15.5 13.5,12.12 13.5,2 C13.5,-14.2 7.38,-25.6 0,-44 Z" fill="url(#l30)"/>
<path d="M0,-25 C-0.25,-13 -9,-5.8 -9,5 C-9,11.75 -4.95,14 0,14 C4.95,14 9,11.75 9,5 C9,-5.8 4.25,-13 0,-25 Z" fill="url(#l31)"/>
<path d="M0,-8 C-1.25,-1.6 -5,2 -5,8 C-5,11.75 -2.75,13 0,13 C2.75,13 5,11.75 5,8 C5,2 1.25,-1.6 0,-8 Z" fill="#fffbe8" opacity="0.9"/>
</g>
<g transform="translate(31.66 53.49) rotate(288) scale(0.26 0.26)">
<path d="M0,-58 C1.5,-34.8 -18,-21.6 -18,0 C-18,13.5 -9.9,18 0,18 C9.9,18 18,13.5 18,0 C18,-21.6 10.5,-34.8 0,-58 Z" fill="none" stroke="#0a0610" stroke-width="3.6" stroke-linejoin="round" stroke-linecap="round"/>
<path d="M0,-58 C1.5,-34.8 -18,-21.6 -18,0 C-18,13.5 -9.9,18 0,18 C9.9,18 18,13.5 18,0 C18,-21.6 10.5,-34.8 0,-58 Z" fill="url(#l32)"/>
<path d="M0,-44 C0.62,-25.6 -13.5,-14.2 -13.5,2 C-13.5,12.12 -7.43,15.5 0,15.5 C7.43,15.5 13.5,12.12 13.5,2 C13.5,-14.2 7.38,-25.6 0,-44 Z" fill="url(#l33)"/>
<path d="M0,-25 C-0.25,-13 -9,-5.8 -9,5 C-9,11.75 -4.95,14 0,14 C4.95,14 9,11.75 9,5 C9,-5.8 4.25,-13 0,-25 Z" fill="url(#l34)"/>
<path d="M0,-8 C-1.25,-1.6 -5,2 -5,8 C-5,11.75 -2.75,13 0,13 C2.75,13 5,11.75 5,8 C5,2 1.25,-1.6 0,-8 Z" fill="#fffbe8" opacity="0.9"/>
</g>
<g transform="translate(44.02 36.49) rotate(324) scale(0.26 0.26)">
<path d="M0,-58 C1.5,-34.8 -18,-21.6 -18,0 C-18,13.5 -9.9,18 0,18 C9.9,18 18,13.5 18,0 C18,-21.6 10.5,-34.8 0,-58 Z" fill="none" stroke="#0a0610" stroke-width="3.6" stroke-linejoin="round" stroke-linecap="round"/>
<path d="M0,-58 C1.5,-34.8 -18,-21.6 -18,0 C-18,13.5 -9.9,18 0,18 C9.9,18 18,13.5 18,0 C18,-21.6 10.5,-34.8 0,-58 Z" fill="url(#l35)"/>
<path d="M0,-44 C0.62,-25.6 -13.5,-14.2 -13.5,2 C-13.5,12.12 -7.43,15.5 0,15.5 C7.43,15.5 13.5,12.12 13.5,2 C13.5,-14.2 7.38,-25.6 0,-44 Z" fill="url(#l36)"/>
<path d="M0,-25 C-0.25,-13 -9,-5.8 -9,5 C-9,11.75 -4.95,14 0,14 C4.95,14 9,11.75 9,5 C9,-5.8 4.25,-13 0,-25 Z" fill="url(#l37)"/>
<path d="M0,-8 C-1.25,-1.6 -5,2 -5,8 C-5,11.75 -2.75,13 0,13 C2.75,13 5,11.75 5,8 C5,2 1.25,-1.6 0,-8 Z" fill="#fffbe8" opacity="0.9"/>
</g>
<circle cx="64" cy="64" r="34" fill="none" stroke="#ffb040" stroke-width="3" opacity="0.8"/>
<circle cx="64" cy="72.84" r="27.28" fill="url(#r38)"/>
<path d="M64,48.04 C64.93,62.42 52.84,70.61 52.84,84 C52.84,92.37 57.86,95.16 64,95.16 C70.14,95.16 75.16,92.37 75.16,84 C75.16,70.61 70.51,62.42 64,48.04 Z" fill="none" stroke="#0a0610" stroke-width="2.23" stroke-linejoin="round" stroke-linecap="round"/>
<path d="M64,48.04 C64.93,62.42 52.84,70.61 52.84,84 C52.84,92.37 57.86,95.16 64,95.16 C70.14,95.16 75.16,92.37 75.16,84 C75.16,70.61 70.51,62.42 64,48.04 Z" fill="url(#l39)"/>
<path d="M51.6,62.92 C48.34,71.85 51.6,78.54 51.6,85.24 C51.6,89.42 54.11,90.82 57.18,90.82 C60.25,90.82 62.76,89.42 62.76,85.24 C62.76,78.54 51.14,71.85 51.6,62.92 Z" fill="#b84a0a"/>
<path d="M51.6,68 C48.76,75.15 53.27,81.17 53.27,85.86 C53.27,88.79 55.03,89.77 57.18,89.77 C59.33,89.77 61.09,88.79 61.09,85.86 C61.09,81.17 50.72,75.15 51.6,68 Z" fill="#ffb040" opacity="0.9"/>
<path d="M77.02,60.44 C77.48,70.36 65.24,78.54 65.24,85.24 C65.24,89.42 67.75,90.82 70.82,90.82 C73.89,90.82 76.4,89.42 76.4,85.24 C76.4,78.54 80.27,70.36 77.02,60.44 Z" fill="#b84a0a"/>
<path d="M77.02,66.02 C77.9,73.96 66.91,81.17 66.91,85.86 C66.91,88.79 68.67,89.77 70.82,89.77 C72.97,89.77 74.73,88.79 74.73,85.86 C74.73,81.17 79.86,73.96 77.02,66.02 Z" fill="#ffb040" opacity="0.9"/>
<path d="M64,56.72 C64.39,68.13 55.63,75.2 55.63,85.24 C55.63,91.52 59.4,93.61 64,93.61 C68.6,93.61 72.37,91.52 72.37,85.24 C72.37,75.2 68.57,68.13 64,56.72 Z" fill="url(#l40)"/>
<path d="M64,68.5 C63.84,75.94 58.42,80.4 58.42,87.1 C58.42,91.28 60.93,92.68 64,92.68 C67.07,92.68 69.58,91.28 69.58,87.1 C69.58,80.4 66.63,75.94 64,68.5 Z" fill="url(#l41)"/>
<path d="M64,79.04 C63.23,83.01 60.9,85.24 60.9,88.96 C60.9,91.28 62.3,92.06 64,92.06 C65.7,92.06 67.1,91.28 67.1,88.96 C67.1,85.24 64.78,83.01 64,79.04 Z" fill="#fffbe8" opacity="0.9"/>
<path d="M61,62 L67,62 L67,70 L74,70 L74,75 L67,75 L67,86 L61,86 L61,75 L54,75 L54,70 L61,70 Z" fill="none" stroke="#0a0610" stroke-width="2.8" stroke-linejoin="round" stroke-linecap="round"/>
<path d="M61,62 L67,62 L67,70 L74,70 L74,75 L67,75 L67,86 L61,86 L61,75 L54,75 L54,70 L61,70 Z" fill="#fffbe6"/>
</g>
<rect x="0" y="0" width="128" height="128" fill="url(#r42)"/>
<path d="M0,0 L128,0 L128,128 L0,128 Z M64,2 L117.69,33 L117.69,95 L64,126 L10.31,95 L10.31,33 Z" fill="#050307" fill-rule="evenodd"/>
<path d="M69.55,6.27 L76.53,-31.18 L73.58,6.8 Z" fill="#ff8a20" opacity="0.22"/>
<path d="M84.31,9.67 L100.74,-24.69 L88.06,11.22 Z" fill="#ff8a20" opacity="0.12"/>
<path d="M97.68,16.78 L122.44,-12.16 L100.9,19.25 Z" fill="#ff8a20" opacity="0.22"/>
<path d="M108.75,27.1 L140.16,5.56 L111.22,30.32 Z" fill="#ff8a20" opacity="0.12"/>
<path d="M116.78,39.94 L152.69,27.26 L118.33,43.69 Z" fill="#ff8a20" opacity="0.22"/>
<path d="M121.2,54.42 L159.18,51.47 L121.73,58.45 Z" fill="#ff8a20" opacity="0.12"/>
<path d="M121.73,69.55 L159.18,76.53 L121.2,73.58 Z" fill="#ff8a20" opacity="0.22"/>
<path d="M118.33,84.31 L152.69,100.74 L116.78,88.06 Z" fill="#ff8a20" opacity="0.12"/>
<path d="M111.22,97.68 L140.16,122.44 L108.75,100.9 Z" fill="#ff8a20" opacity="0.22"/>
<path d="M100.9,108.75 L122.44,140.16 L97.68,111.22 Z" fill="#ff8a20" opacity="0.12"/>
<path d="M88.06,116.78 L100.74,152.69 L84.31,118.33 Z" fill="#ff8a20" opacity="0.22"/>
<path d="M73.58,121.2 L76.53,159.18 L69.55,121.73 Z" fill="#ff8a20" opacity="0.12"/>
<path d="M58.45,121.73 L51.47,159.18 L54.42,121.2 Z" fill="#ff8a20" opacity="0.22"/>
<path d="M43.69,118.33 L27.26,152.69 L39.94,116.78 Z" fill="#ff8a20" opacity="0.12"/>
<path d="M30.32,111.22 L5.56,140.16 L27.1,108.75 Z" fill="#ff8a20" opacity="0.22"/>
<path d="M19.25,100.9 L-12.16,122.44 L16.78,97.68 Z" fill="#ff8a20" opacity="0.12"/>
<path d="M11.22,88.06 L-24.69,100.74 L9.67,84.31 Z" fill="#ff8a20" opacity="0.22"/>
<path d="M6.8,73.58 L-31.18,76.53 L6.27,69.55 Z" fill="#ff8a20" opacity="0.12"/>
<path d="M6.27,58.45 L-31.18,51.47 L6.8,54.42 Z" fill="#ff8a20" opacity="0.22"/>
<path d="M9.67,43.69 L-24.69,27.26 L11.22,39.94 Z" fill="#ff8a20" opacity="0.12"/>
<path d="M16.78,30.32 L-12.16,5.56 L19.25,27.1 Z" fill="#ff8a20" opacity="0.22"/>
<path d="M27.1,19.25 L5.56,-12.16 L30.32,16.78 Z" fill="#ff8a20" opacity="0.12"/>
<path d="M39.94,11.22 L27.26,-24.69 L43.69,9.67 Z" fill="#ff8a20" opacity="0.22"/>
<path d="M54.42,6.8 L51.47,-31.18 L58.45,6.27 Z" fill="#ff8a20" opacity="0.12"/>
<path d="M64,2 L117.69,33 L117.69,95 L64,126 L10.31,95 L10.31,33 Z" fill="none" stroke="#000000" stroke-width="8" stroke-linejoin="round" stroke-linecap="round"/>
<path d="M64,2 L117.69,33 L117.69,95 L64,126 L10.31,95 L10.31,33 Z" fill="none" stroke="url(#l43)" stroke-width="4.6" stroke-linejoin="round" stroke-linecap="round"/>
<path d="M64,5.4 L114.75,34.7 L114.75,93.3 L64,122.6 L13.25,93.3 L13.25,34.7 Z" fill="none" stroke="#000000" stroke-width="1.2" opacity="0.8" stroke-linejoin="round" stroke-linecap="round"/>
<path d="M64,6.6 L113.71,35.3 L113.71,92.7 L64,121.4 L14.29,92.7 L14.29,35.3 Z" fill="none" stroke="#ffe0a0" stroke-width="0.6" opacity="0.35" stroke-linejoin="round" stroke-linecap="round"/>
<circle cx="64" cy="2" r="7" fill="url(#r44)"/>
<path d="M64,-2.2 L67.4,2 L64,6.2 L60.6,2 Z" fill="url(#l45)" stroke="#000000" stroke-width="0.9" stroke-linejoin="round" stroke-linecap="round"/>
<circle cx="117.69" cy="33" r="7" fill="url(#r46)"/>
<path d="M117.69,28.8 L121.09,33 L117.69,37.2 L114.29,33 Z" fill="url(#l47)" stroke="#000000" stroke-width="0.9" stroke-linejoin="round" stroke-linecap="round"/>
<circle cx="117.69" cy="95" r="7" fill="url(#r48)"/>
<path d="M117.69,90.8 L121.09,95 L117.69,99.2 L114.29,95 Z" fill="url(#l49)" stroke="#000000" stroke-width="0.9" stroke-linejoin="round" stroke-linecap="round"/>
<circle cx="64" cy="126" r="7" fill="url(#r50)"/>
<path d="M64,121.8 L67.4,126 L64,130.2 L60.6,126 Z" fill="url(#l51)" stroke="#000000" stroke-width="0.9" stroke-linejoin="round" stroke-linecap="round"/>
<circle cx="10.31" cy="95" r="7" fill="url(#r52)"/>
<path d="M10.31,90.8 L13.71,95 L10.31,99.2 L6.91,95 Z" fill="url(#l53)" stroke="#000000" stroke-width="0.9" stroke-linejoin="round" stroke-linecap="round"/>
<circle cx="10.31" cy="33" r="7" fill="url(#r54)"/>
<path d="M10.31,28.8 L13.71,33 L10.31,37.2 L6.91,33 Z" fill="url(#l55)" stroke="#000000" stroke-width="0.9" stroke-linejoin="round" stroke-linecap="round"/>
</svg>
