<svg xmlns="http://www.w3.org/2000/svg" width="128" height="128" viewBox="0 0 128 128">
<defs><radialGradient id="r1" gradientUnits="userSpaceOnUse" cx="64" cy="58" r="92"><stop offset="0" stop-color="#1f1445"/><stop offset="0.55" stop-color="#100a23"/><stop offset="1" stop-color="#040208"/></radialGradient><radialGradient id="r2" gradientUnits="userSpaceOnUse" cx="29.09" cy="98.57" r="40.4"><stop offset="0" stop-color="#8a5aff" stop-opacity="0.22"/><stop offset="1" stop-color="#8a5aff" stop-opacity="0"/></radialGradient><radialGradient id="r3" gradientUnits="userSpaceOnUse" cx="39.86" cy="102.31" r="32.54"><stop offset="0" stop-color="#8a5aff" stop-opacity="0.22"/><stop offset="1" stop-color="#8a5aff" stop-opacity="0"/></radialGradient><radialGradient id="r4" gradientUnits="userSpaceOnUse" cx="64.82" cy="64.7" r="31.11"><stop offset="0" stop-color="#8a5aff" stop-opacity="0.22"/><stop offset="1" stop-color="#8a5aff" stop-opacity="0"/></radialGradient><radialGradient id="r5" gradientUnits="userSpaceOnUse" cx="57.33" cy="44.47" r="41.78"><stop offset="0" stop-color="#ffe23a" stop-opacity="0.22"/><stop offset="1" stop-color="#ffe23a" stop-opacity="0"/></radialGradient><radialGradient id="r6" gradientUnits="userSpaceOnUse" cx="22.12" cy="74.4" r="43.99"><stop offset="0" stop-color="#ffe23a" stop-opacity="0.22"/><stop offset="1" stop-color="#ffe23a" stop-opacity="0"/></radialGradient><radialGradient id="r7" gradientUnits="userSpaceOnUse" cx="22" cy="100" r="22"><stop offset="0" stop-color="#b88aff" stop-opacity="0.95"/><stop offset="0.35" stop-color="#b88aff" stop-opacity="0.52"/><stop offset="0.7" stop-color="#b88aff" stop-opacity="0.15"/><stop offset="1" stop-color="#b88aff" stop-opacity="0"/></radialGradient><radialGradient id="r8" gradientUnits="userSpaceOnUse" cx="20" cy="98" r="9"><stop offset="0" stop-color="#ffffff"/><stop offset="0.5" stop-color="#ffe23a"/><stop offset="1" stop-color="#4a2a9a"/></radialGradient><radialGradient id="r9" gradientUnits="userSpaceOnUse" cx="56" cy="34" r="22"><stop offset="0" stop-color="#b88aff" stop-opacity="0.95"/><stop offset="0.35" stop-color="#b88aff" stop-opacity="0.52"/><stop offset="0.7" stop-color="#b88aff" stop-opacity="0.15"/><stop offset="1" stop-color="#b88aff" stop-opacity="0"/></radialGradient><radialGradient id="r10" gradientUnits="userSpaceOnUse" cx="54" cy="32" r="9"><stop offset="0" stop-color="#ffffff"/><stop offset="0.5" stop-color="#ffe23a"/><stop offset="1" stop-color="#4a2a9a"/></radialGradient><radialGradient id="r11" gradientUnits="userSpaceOnUse" cx="104" cy="70" r="22"><stop offset="0" stop-color="#b88aff" stop-opacity="0.95"/><stop offset="0.35" stop-color="#b88aff" stop-opacity="0.52"/><stop offset="0.7" stop-color="#b88aff" stop-opacity="0.15"/><stop offset="1" stop-color="#b88aff" stop-opacity="0"/></radialGradient><radialGradient id="r12" gradientUnits="userSpaceOnUse" cx="102" cy="68" r="9"><stop offset="0" stop-color="#ffffff"/><stop offset="0.5" stop-color="#ffe23a"/><stop offset="1" stop-color="#4a2a9a"/></radialGradient><radialGradient id="r13" gradientUnits="userSpaceOnUse" cx="90" cy="112" r="22"><stop offset="0" stop-color="#b88aff" stop-opacity="0.95"/><stop offset="0.35" stop-color="#b88aff" stop-opacity="0.52"/><stop offset="0.7" stop-color="#b88aff" stop-opacity="0.15"/><stop offset="1" stop-color="#b88aff" stop-opacity="0"/></radialGradient><radialGradient id="r14" gradientUnits="userSpaceOnUse" cx="88" cy="110" r="9"><stop offset="0" stop-color="#ffffff"/><stop offset="0.5" stop-color="#ffe23a"/><stop offset="1" stop-color="#4a2a9a"/></radialGradient><radialGradient id="r15" gradientUnits="userSpaceOnUse" cx="64" cy="62" r="92"><stop offset="0" stop-color="#000000" stop-opacity="0"/><stop offset="0.58" stop-color="#000000" stop-opacity="0"/><stop offset="0.85" stop-color="#000000" stop-opacity="0.39"/><stop offset="1" stop-color="#000000" stop-opacity="0.7"/></radialGradient><linearGradient id="l16" gradientUnits="userSpaceOnUse" x1="0" y1="0" x2="128" y2="128"><stop offset="0" stop-color="#ece4ff"/><stop offset="0.35" stop-color="#8c80c8"/><stop offset="0.7" stop-color="#2a2050"/><stop offset="1" stop-color="#191330"/></linearGradient><linearGradient id="l17" gradientUnits="userSpaceOnUse" x1="2.5" y1="2.5" x2="10.5" y2="10.5"><stop offset="0" stop-color="#ece4ff"/><stop offset="1" stop-color="#2a2050"/></linearGradient><linearGradient id="l18" gradientUnits="userSpaceOnUse" x1="117.5" y1="2.5" x2="125.5" y2="10.5"><stop offset="0" stop-color="#ece4ff"/><stop offset="1" stop-color="#2a2050"/></linearGradient><linearGradient id="l19" gradientUnits="userSpaceOnUse" x1="2.5" y1="117.5" x2="10.5" y2="125.5"><stop offset="0" stop-color="#ece4ff"/><stop offset="1" stop-color="#2a2050"/></linearGradient><linearGradient id="l20" gradientUnits="userSpaceOnUse" x1="117.5" y1="117.5" x2="125.5" y2="125.5"><stop offset="0" stop-color="#ece4ff"/><stop offset="1" stop-color="#2a2050"/></linearGradient></defs>
<rect x="0" y="0" width="128" height="128" fill="url(#r1)"/>
<circle cx="29.09" cy="98.57" r="40.4" fill="url(#r2)"/>
<circle cx="39.86" cy="102.31" r="32.54" fill="url(#r3)"/>
<circle cx="64.82" cy="64.7" r="31.11" fill="url(#r4)"/>
<circle cx="57.33" cy="44.47" r="41.78" fill="url(#r5)"/>
<circle cx="22.12" cy="74.4" r="43.99" fill="url(#r6)"/>
<path d="M-10,-6.69 L140,-71.34" fill="none" stroke="#ffffff" stroke-width="4.05" opacity="0.02" stroke-linejoin="round" stroke-linecap="round"/>
<path d="M-10,65.72 L140,2.73" fill="none" stroke="#ffffff" stroke-width="5.2" opacity="0.02" stroke-linejoin="round" stroke-linecap="round"/>
<path d="M-10,-5.35 L140,-65.91" fill="none" stroke="#ffffff" stroke-width="9.4" opacity="0.02" stroke-linejoin="round" stroke-linecap="round"/>
<path d="M-10,63.02 L140,4.69" fill="none" stroke="#ffffff" stroke-width="5.95" opacity="0.02" stroke-linejoin="round" stroke-linecap="round"/>
<path d="M-10,119.11 L140,67.64" fill="none" stroke="#ffffff" stroke-width="6.78" opacity="0.02" stroke-linejoin="round" stroke-linecap="round"/>
<path d="M-10,39.11 L140,-12.27" fill="none" stroke="#ffffff" stroke-width="8.96" opacity="0.02" stroke-linejoin="round" stroke-linecap="round"/>
<path d="M-10,69.68 L140,14.77" fill="none" stroke="#ffffff" stroke-width="7.33" opacity="0.02" stroke-linejoin="round" stroke-linecap="round"/>
<path d="M22,100 L27.87,91.09 L34.33,82.49 L40.19,73.58 L46.85,65.08 L48.88,54.19 L54.61,45.22 L56,34" fill="none" stroke="#b88aff" stroke-width="37.8" opacity="0.12" stroke-linejoin="round" stroke-linecap="round"/>
<path d="M22,100 L27.87,91.09 L34.33,82.49 L40.19,73.58 L46.85,65.08 L48.88,54.19 L54.61,45.22 L56,34" fill="none" stroke="#b88aff" stroke-width="23.4" opacity="0.22" stroke-linejoin="round" stroke-linecap="round"/>
<path d="M22,100 L27.87,91.09 L34.33,82.49 L40.19,73.58 L46.85,65.08 L48.88,54.19 L54.61,45.22 L56,34" fill="none" stroke="#4a2a9a" stroke-width="14.4" opacity="0.55" stroke-linejoin="round" stroke-linecap="round"/>
<path d="M24.25,101.49 L31.23,93.46 L38,85.07 L43.63,76.05 L50.2,66.58 L51.52,55.22 L56.31,45.82 L56.67,34.08 L55.33,33.92 L52.91,44.62 L46.24,53.16 L43.51,63.58 L36.75,71.11 L30.66,79.91 L24.51,88.73 L19.75,98.51 Z" fill="none" stroke="#0a0610" stroke-width="1.4" opacity="0.8" stroke-linejoin="round" stroke-linecap="round"/>
<path d="M24.25,101.49 L31.23,93.46 L38,85.07 L43.63,76.05 L50.2,66.58 L51.52,55.22 L56.31,45.82 L56.67,34.08 L55.33,33.92 L52.91,44.62 L46.24,53.16 L43.51,63.58 L36.75,71.11 L30.66,79.91 L24.51,88.73 L19.75,98.51 Z" fill="#ffe23a"/>
<path d="M23.01,100.67 L29.38,92.16 L35.98,83.65 L41.73,74.69 L48.34,65.75 L50.03,54.64 L55.31,45.46 L56.2,34.02 L55.8,33.98 L53.92,44.97 L47.74,53.75 L45.37,64.41 L38.65,72.47 L32.68,81.33 L26.36,90.03 L20.99,99.33 Z" fill="#ffffff"/>
<path d="M33.84,83.58 L38.43,86.5 L43.04,88.15 L46.31,92.56 L46.85,92.29 L45.07,86.23 L40.15,82.95 L34.82,81.4 Z" fill="none" stroke="#0a0610" stroke-width="1.4" opacity="0.8" stroke-linejoin="round" stroke-linecap="round"/>
<path d="M33.84,83.58 L38.43,86.5 L43.04,88.15 L46.31,92.56 L46.85,92.29 L45.07,86.23 L40.15,82.95 L34.82,81.4 Z" fill="#ffe23a"/>
<path d="M34.11,82.98 L38.9,85.53 L43.61,87.61 L46.5,92.46 L46.66,92.39 L44.5,86.77 L39.67,83.93 L34.55,82 Z" fill="#ffffff"/>
<path d="M56,34 L64.76,36.61 L70.65,43.04 L73.52,53.49 L84.42,53.26 L93.19,55.84 L98.53,63 L104,70" fill="none" stroke="#b88aff" stroke-width="37.8" opacity="0.12" stroke-linejoin="round" stroke-linecap="round"/>
<path d="M56,34 L64.76,36.61 L70.65,43.04 L73.52,53.49 L84.42,53.26 L93.19,55.84 L98.53,63 L104,70" fill="none" stroke="#b88aff" stroke-width="23.4" opacity="0.22" stroke-linejoin="round" stroke-linecap="round"/>
<path d="M56,34 L64.76,36.61 L70.65,43.04 L73.52,53.49 L84.42,53.26 L93.19,55.84 L98.53,63 L104,70" fill="none" stroke="#4a2a9a" stroke-width="14.4" opacity="0.55" stroke-linejoin="round" stroke-linecap="round"/>
<path d="M55.23,36.59 L62.6,40.1 L66.67,45.11 L71,56.89 L83.98,56.9 L91.58,58.17 L97.1,64.1 L103.47,70.42 L104.53,69.58 L99.97,61.91 L94.8,53.51 L84.85,49.62 L76.05,50.09 L74.64,40.97 L66.92,33.11 L56.77,31.41 Z" fill="none" stroke="#0a0610" stroke-width="1.4" opacity="0.8" stroke-linejoin="round" stroke-linecap="round"/>
<path d="M55.23,36.59 L62.6,40.1 L66.67,45.11 L71,56.89 L83.98,56.9 L91.58,58.17 L97.1,64.1 L103.47,70.42 L104.53,69.58 L99.97,61.91 L94.8,53.51 L84.85,49.62 L76.05,50.09 L74.64,40.97 L66.92,33.11 L56.77,31.41 Z" fill="#ffe23a"/>
<path d="M55.65,35.16 L63.79,38.18 L68.86,43.97 L72.39,55.02 L84.22,54.87 L92.49,56.85 L97.95,63.45 L103.84,70.12 L104.16,69.88 L99.12,62.55 L93.89,54.83 L84.61,51.64 L74.65,51.97 L72.44,42.11 L65.73,35.03 L56.35,32.84 Z" fill="#ffffff"/>
<path d="M85.51,52.77 L83.88,47.46 L79.06,45.52 L74.32,45.03 L74.12,45.6 L77.97,48.09 L80.97,50.13 L83.32,53.74 Z" fill="none" stroke="#0a0610" stroke-width="1.4" opacity="0.8" stroke-linejoin="round" stroke-linecap="round"/>
<path d="M85.51,52.77 L83.88,47.46 L79.06,45.52 L74.32,45.03 L74.12,45.6 L77.97,48.09 L80.97,50.13 L83.32,53.74 Z" fill="#ffe23a"/>
<path d="M84.91,53.04 L83.08,48.2 L78.76,46.24 L74.25,45.23 L74.19,45.4 L78.28,47.37 L81.77,49.4 L83.92,53.48 Z" fill="#ffffff"/>
<path d="M104,70 L104.99,77 L96.57,80.86 L102.73,89.58 L94.46,93.49 L98.31,101.44 L96.37,107.46 L90,112" fill="none" stroke="#b88aff" stroke-width="37.8" opacity="0.12" stroke-linejoin="round" stroke-linecap="round"/>
<path d="M104,70 L104.99,77 L96.57,80.86 L102.73,89.58 L94.46,93.49 L98.31,101.44 L96.37,107.46 L90,112" fill="none" stroke="#b88aff" stroke-width="23.4" opacity="0.22" stroke-linejoin="round" stroke-linecap="round"/>
<path d="M104,70 L104.99,77 L96.57,80.86 L102.73,89.58 L94.46,93.49 L98.31,101.44 L96.37,107.46 L90,112" fill="none" stroke="#4a2a9a" stroke-width="14.4" opacity="0.55" stroke-linejoin="round" stroke-linecap="round"/>
<path d="M101.33,70.38 L101.6,74.68 L92.15,80.06 L98.55,88.88 L91.03,92.21 L95.51,101.82 L94.95,106.34 L89.61,111.45 L90.39,112.55 L97.79,108.57 L101.11,101.05 L97.9,94.77 L106.9,90.27 L100.99,81.65 L108.37,79.31 L106.67,69.62 Z" fill="none" stroke="#0a0610" stroke-width="1.4" opacity="0.8" stroke-linejoin="round" stroke-linecap="round"/>
<path d="M101.33,70.38 L101.6,74.68 L92.15,80.06 L98.55,88.88 L91.03,92.21 L95.51,101.82 L94.95,106.34 L89.61,111.45 L90.39,112.55 L97.79,108.57 L101.11,101.05 L97.9,94.77 L106.9,90.27 L100.99,81.65 L108.37,79.31 L106.67,69.62 Z" fill="#ffe23a"/>
<path d="M102.8,70.17 L103.46,75.95 L94.58,80.5 L100.85,89.26 L92.94,92.92 L97.09,101.6 L95.79,107 L89.88,111.84 L90.12,112.16 L96.95,107.91 L99.53,101.27 L95.99,94.06 L104.6,89.89 L98.56,81.21 L106.51,78.04 L105.2,69.83 Z" fill="#ffffff"/>
<path d="M97.72,80.51 L96.59,74.44 L91.71,71.34 L86.22,70.33 L86,70.89 L90.36,73.78 L93.3,76.64 L95.42,81.21 Z" fill="none" stroke="#0a0610" stroke-width="1.4" opacity="0.8" stroke-linejoin="round" stroke-linecap="round"/>
<path d="M97.72,80.51 L96.59,74.44 L91.71,71.34 L86.22,70.33 L86,70.89 L90.36,73.78 L93.3,76.64 L95.42,81.21 Z" fill="#ffe23a"/>
<path d="M97.09,80.7 L95.68,75.05 L91.33,72.03 L86.14,70.53 L86.08,70.7 L90.74,73.09 L94.21,76.03 L96.05,81.01 Z" fill="#ffffff"/>
<circle cx="22" cy="100" r="22" fill="url(#r7)"/>
<circle cx="22" cy="100" r="8.5" fill="url(#r8)" stroke="#0a0610" stroke-width="1.8"/>
<circle cx="20" cy="98" r="2" fill="#ffffff"/>
<circle cx="56" cy="34" r="22" fill="url(#r9)"/>
<circle cx="56" cy="34" r="8.5" fill="url(#r10)" stroke="#0a0610" stroke-width="1.8"/>
<circle cx="54" cy="32" r="2" fill="#ffffff"/>
<circle cx="104" cy="70" r="22" fill="url(#r11)"/>
<circle cx="104" cy="70" r="8.5" fill="url(#r12)" stroke="#0a0610" stroke-width="1.8"/>
<circle cx="102" cy="68" r="2" fill="#ffffff"/>
<circle cx="90" cy="112" r="22" fill="url(#r13)"/>
<circle cx="90" cy="112" r="8.5" fill="url(#r14)" stroke="#0a0610" stroke-width="1.8"/>
<circle cx="88" cy="110" r="2" fill="#ffffff"/>
<rect x="0" y="0" width="128" height="128" fill="url(#r15)"/>
<path d="M0,0 L128,0 L128,128 L0,128 Z M4,4 L4,124 L124,124 L124,4 Z" fill="#050307" fill-rule="evenodd"/>
<path d="M10,5 L118,5 Q123,5 123,10 L123,118 Q123,123 118,123 L10,123 Q5,123 5,118 L5,10 Q5,5 10,5 Z" fill="none" stroke="url(#l16)" stroke-width="3.2" stroke-linejoin="round" stroke-linecap="round"/>
<path d="M11.7,8.2 L116.3,8.2 Q119.8,8.2 119.8,11.7 L119.8,116.3 Q119.8,119.8 116.3,119.8 L11.7,119.8 Q8.2,119.8 8.2,116.3 L8.2,11.7 Q8.2,8.2 11.7,8.2 Z" fill="none" stroke="#000000" stroke-width="1.2" opacity="0.8" stroke-linejoin="round" stroke-linecap="round"/>
<path d="M12.4,9.4 L115.6,9.4 Q118.6,9.4 118.6,12.4 L118.6,115.6 Q118.6,118.6 115.6,118.6 L12.4,118.6 Q9.4,118.6 9.4,115.6 L9.4,12.4 Q9.4,9.4 12.4,9.4 Z" fill="none" stroke="#ece4ff" stroke-width="0.6" opacity="0.35" stroke-linejoin="round" stroke-linecap="round"/>
<path d="M6.5,1.5 L11.5,6.5 L6.5,11.5 L1.5,6.5 Z" fill="url(#l17)" stroke="#000000" stroke-width="1" stroke-linejoin="round" stroke-linecap="round"/>
<circle cx="5.7" cy="5.7" r="1" fill="#ffffff" opacity="0.7"/>
<path d="M121.5,1.5 L126.5,6.5 L121.5,11.5 L116.5,6.5 Z" fill="url(#l18)" stroke="#000000" stroke-width="1" stroke-linejoin="round" stroke-linecap="round"/>
<circle cx="120.7" cy="5.7" r="1" fill="#ffffff" opacity="0.7"/>
<path d="M6.5,116.5 L11.5,121.5 L6.5,126.5 L1.5,121.5 Z" fill="url(#l19)" stroke="#000000" stroke-width="1" stroke-linejoin="round" stroke-linecap="round"/>
<circle cx="5.7" cy="120.7" r="1" fill="#ffffff" opacity="0.7"/>
<path d="M121.5,116.5 L126.5,121.5 L121.5,126.5 L116.5,121.5 Z" fill="url(#l20)" stroke="#000000" stroke-width="1" stroke-linejoin="round" stroke-linecap="round"/>
<circle cx="120.7" cy="120.7" r="1" fill="#ffffff" opacity="0.7"/>
</svg>
