<svg xmlns="http://www.w3.org/2000/svg" width="128" height="128" viewBox="0 0 128 128">
<defs><radialGradient id="r1" gradientUnits="userSpaceOnUse" cx="64" cy="58" r="92"><stop offset="0" stop-color="#0b0b0f"/><stop offset="0.55" stop-color="#07060b"/><stop offset="1" stop-color="#040208"/></radialGradient><radialGradient id="r2" gradientUnits="userSpaceOnUse" cx="38.54" cy="79.21" r="42.9"><stop offset="0" stop-color="#C9566C" stop-opacity="0.22"/><stop offset="1" stop-color="#C9566C" stop-opacity="0"/></radialGradient><radialGradient id="r3" gradientUnits="userSpaceOnUse" cx="73.19" cy="48.47" r="31.78"><stop offset="0" stop-color="#C9566C" stop-opacity="0.22"/><stop offset="1" stop-color="#C9566C" stop-opacity="0"/></radialGradient><radialGradient id="r4" gradientUnits="userSpaceOnUse" cx="81.84" cy="72.39" r="26.66"><stop offset="0" stop-color="#C9566C" stop-opacity="0.22"/><stop offset="1" stop-color="#C9566C" stop-opacity="0"/></radialGradient><radialGradient id="r5" gradientUnits="userSpaceOnUse" cx="96.7" cy="40.65" r="36.87"><stop offset="0" stop-color="#C9566C" stop-opacity="0.22"/><stop offset="1" stop-color="#C9566C" stop-opacity="0"/></radialGradient><radialGradient id="r6" gradientUnits="userSpaceOnUse" cx="85.79" cy="106.92" r="36.55"><stop offset="0" stop-color="#C9566C" stop-opacity="0.22"/><stop offset="1" stop-color="#C9566C" stop-opacity="0"/></radialGradient><radialGradient id="r7" gradientUnits="userSpaceOnUse" cx="0" cy="0" r="50"><stop offset="0" stop-color="#C9566C" stop-opacity="0.5"/><stop offset="0.35" stop-color="#C9566C" stop-opacity="0.28"/><stop offset="0.7" stop-color="#C9566C" stop-opacity="0.08"/><stop offset="1" stop-color="#C9566C" stop-opacity="0"/></radialGradient><radialGradient id="r8" gradientUnits="userSpaceOnUse" cx="64" cy="62" r="57.2"><stop offset="0" stop-color="#C9566C" stop-opacity="0.7"/><stop offset="0.35" stop-color="#C9566C" stop-opacity="0.39"/><stop offset="0.7" stop-color="#C9566C" stop-opacity="0.11"/><stop offset="1" stop-color="#C9566C" stop-opacity="0"/></radialGradient><radialGradient id="r9" gradientUnits="userSpaceOnUse" cx="64" cy="62" r="26"><stop offset="0" stop-color="#000000"/><stop offset="0.6" stop-color="#050208"/><stop offset="0.88" stop-color="#20162a"/><stop offset="1" stop-color="#e9bbc4"/></radialGradient><radialGradient id="r10" gradientUnits="userSpaceOnUse" cx="64" cy="62" r="92"><stop offset="0" stop-color="#000000" stop-opacity="0"/><stop offset="0.58" stop-color="#000000" stop-opacity="0"/><stop offset="0.85" stop-color="#000000" stop-opacity="0.33"/><stop offset="1" stop-color="#000000" stop-opacity="0.6"/></radialGradient><linearGradient id="l11" gradientUnits="userSpaceOnUse" x1="0" y1="0" x2="128" y2="128"><stop offset="0" stop-color="#ffe2a0"/><stop offset="0.35" stop-color="#b88a3a"/><stop offset="0.7" stop-color="#4a3010"/><stop offset="1" stop-color="#2c1d0a"/></linearGradient><linearGradient id="l12" gradientUnits="userSpaceOnUse" x1="2.5" y1="2.5" x2="10.5" y2="10.5"><stop offset="0" stop-color="#ffe2a0"/><stop offset="1" stop-color="#4a3010"/></linearGradient><linearGradient id="l13" gradientUnits="userSpaceOnUse" x1="117.5" y1="2.5" x2="125.5" y2="10.5"><stop offset="0" stop-color="#ffe2a0"/><stop offset="1" stop-color="#4a3010"/></linearGradient><linearGradient id="l14" gradientUnits="userSpaceOnUse" x1="2.5" y1="117.5" x2="10.5" y2="125.5"><stop offset="0" stop-color="#ffe2a0"/><stop offset="1" stop-color="#4a3010"/></linearGradient><linearGradient id="l15" gradientUnits="userSpaceOnUse" x1="117.5" y1="117.5" x2="125.5" y2="125.5"><stop offset="0" stop-color="#ffe2a0"/><stop offset="1" stop-color="#4a3010"/></linearGradient><radialGradient id="r16" gradientUnits="userSpaceOnUse" cx="5.7" cy="5.7" r="3"><stop offset="0" stop-color="#e9bbc4"/><stop offset="0.6" stop-color="#C9566C"/><stop offset="1" stop-color="#5a2731"/></radialGradient><radialGradient id="r17" gradientUnits="userSpaceOnUse" cx="120.7" cy="5.7" r="3"><stop offset="0" stop-color="#e9bbc4"/><stop offset="0.6" stop-color="#C9566C"/><stop offset="1" stop-color="#5a2731"/></radialGradient><radialGradient id="r18" gradientUnits="userSpaceOnUse" cx="5.7" cy="120.7" r="3"><stop offset="0" stop-color="#e9bbc4"/><stop offset="0.6" stop-color="#C9566C"/><stop offset="1" stop-color="#5a2731"/></radialGradient><radialGradient id="r19" gradientUnits="userSpaceOnUse" cx="120.7" cy="120.7" r="3"><stop offset="0" stop-color="#e9bbc4"/><stop offset="0.6" stop-color="#C9566C"/><stop offset="1" stop-color="#5a2731"/></radialGradient></defs>
<rect x="0" y="0" width="128" height="128" fill="url(#r1)"/>
<circle cx="38.54" cy="79.21" r="42.9" fill="url(#r2)"/>
<circle cx="73.19" cy="48.47" r="31.78" fill="url(#r3)"/>
<circle cx="81.84" cy="72.39" r="26.66" fill="url(#r4)"/>
<circle cx="96.7" cy="40.65" r="36.87" fill="url(#r5)"/>
<circle cx="85.79" cy="106.92" r="36.55" fill="url(#r6)"/>
<path d="M-10,-19.65 L140,-84.65" fill="none" stroke="#ffffff" stroke-width="4.49" opacity="0.02" stroke-linejoin="round" stroke-linecap="round"/>
<path d="M-10,-18.91 L140,-79.7" fill="none" stroke="#ffffff" stroke-width="4.88" opacity="0.02" stroke-linejoin="round" stroke-linecap="round"/>
<path d="M-10,39.39 L140,-28.66" fill="none" stroke="#ffffff" stroke-width="4.04" opacity="0.02" stroke-linejoin="round" stroke-linecap="round"/>
<path d="M-10,36.96 L140,-22.3" fill="none" stroke="#ffffff" stroke-width="8.77" opacity="0.02" stroke-linejoin="round" stroke-linecap="round"/>
<path d="M-10,50.6 L140,-16.17" fill="none" stroke="#ffffff" stroke-width="8.23" opacity="0.02" stroke-linejoin="round" stroke-linecap="round"/>
<path d="M-10,121.83 L140,67.25" fill="none" stroke="#ffffff" stroke-width="4.55" opacity="0.02" stroke-linejoin="round" stroke-linecap="round"/>
<path d="M-10,60.18 L140,3.62" fill="none" stroke="#ffffff" stroke-width="4.92" opacity="0.02" stroke-linejoin="round" stroke-linecap="round"/>
<g transform="translate(64 92) scale(1 0.36)">
<circle cx="0" cy="0" r="50" fill="url(#r7)"/>
</g>
<circle cx="64" cy="62" r="57.2" fill="url(#r8)"/>
<circle cx="64" cy="62" r="28.4" fill="#0a0610"/>
<circle cx="64" cy="62" r="26" fill="url(#r9)"/>
<path d="M43.72,55.41 C44.16,54.51 45.25,51.66 46.37,50.02 C47.48,48.38 48.88,46.84 50.41,45.57 C51.94,44.31 53.71,43.22 55.53,42.43 C57.35,41.65 59.36,41.1 61.33,40.85 C63.29,40.6 66.33,40.93 67.34,40.94" fill="none" stroke="#e9bbc4" stroke-width="1.6" opacity="0.7" stroke-linejoin="round" stroke-linecap="round"/>
<path d="M92,62 L107.04,71.15" fill="none" stroke="#C9566C" stroke-width="3" opacity="0.8" stroke-linejoin="round" stroke-linecap="round"/>
<path d="M83.8,81.8 L87.96,98.9" fill="none" stroke="#C9566C" stroke-width="3" opacity="0.8" stroke-linejoin="round" stroke-linecap="round"/>
<path d="M64,90 L54.85,105.04" fill="none" stroke="#C9566C" stroke-width="3" opacity="0.8" stroke-linejoin="round" stroke-linecap="round"/>
<path d="M44.2,81.8 L27.1,85.96" fill="none" stroke="#C9566C" stroke-width="3" opacity="0.8" stroke-linejoin="round" stroke-linecap="round"/>
<path d="M36,62 L20.96,52.85" fill="none" stroke="#C9566C" stroke-width="3" opacity="0.8" stroke-linejoin="round" stroke-linecap="round"/>
<path d="M44.2,42.2 L40.04,25.1" fill="none" stroke="#C9566C" stroke-width="3" opacity="0.8" stroke-linejoin="round" stroke-linecap="round"/>
<path d="M64,34 L73.15,18.96" fill="none" stroke="#C9566C" stroke-width="3" opacity="0.8" stroke-linejoin="round" stroke-linecap="round"/>
<path d="M83.8,42.2 L100.9,38.04" fill="none" stroke="#C9566C" stroke-width="3" opacity="0.8" stroke-linejoin="round" stroke-linecap="round"/>
<rect x="0" y="0" width="128" height="128" fill="url(#r10)"/>
<path d="M0,0 L128,0 L128,128 L0,128 Z M4,4 L4,124 L124,124 L124,4 Z" fill="#050307" fill-rule="evenodd"/>
<path d="M10,5 L118,5 Q123,5 123,10 L123,118 Q123,123 118,123 L10,123 Q5,123 5,118 L5,10 Q5,5 10,5 Z" fill="none" stroke="url(#l11)" stroke-width="3.2" stroke-linejoin="round" stroke-linecap="round"/>
<path d="M11.7,8.2 L116.3,8.2 Q119.8,8.2 119.8,11.7 L119.8,116.3 Q119.8,119.8 116.3,119.8 L11.7,119.8 Q8.2,119.8 8.2,116.3 L8.2,11.7 Q8.2,8.2 11.7,8.2 Z" fill="none" stroke="#000000" stroke-width="1.2" opacity="0.8" stroke-linejoin="round" stroke-linecap="round"/>
<path d="M12.4,9.4 L115.6,9.4 Q118.6,9.4 118.6,12.4 L118.6,115.6 Q118.6,118.6 115.6,118.6 L12.4,118.6 Q9.4,118.6 9.4,115.6 L9.4,12.4 Q9.4,9.4 12.4,9.4 Z" fill="none" stroke="#ffe2a0" stroke-width="0.6" opacity="0.35" stroke-linejoin="round" stroke-linecap="round"/>
<path d="M6.5,1.5 L11.5,6.5 L6.5,11.5 L1.5,6.5 Z" fill="url(#l12)" stroke="#000000" stroke-width="1" stroke-linejoin="round" stroke-linecap="round"/>
<circle cx="5.7" cy="5.7" r="1" fill="#ffffff" opacity="0.7"/>
<path d="M121.5,1.5 L126.5,6.5 L121.5,11.5 L116.5,6.5 Z" fill="url(#l13)" stroke="#000000" stroke-width="1" stroke-linejoin="round" stroke-linecap="round"/>
<circle cx="120.7" cy="5.7" r="1" fill="#ffffff" opacity="0.7"/>
<path d="M6.5,116.5 L11.5,121.5 L6.5,126.5 L1.5,121.5 Z" fill="url(#l14)" stroke="#000000" stroke-width="1" stroke-linejoin="round" stroke-linecap="round"/>
<circle cx="5.7" cy="120.7" r="1" fill="#ffffff" opacity="0.7"/>
<path d="M121.5,116.5 L126.5,121.5 L121.5,126.5 L116.5,121.5 Z" fill="url(#l15)" stroke="#000000" stroke-width="1" stroke-linejoin="round" stroke-linecap="round"/>
<circle cx="120.7" cy="120.7" r="1" fill="#ffffff" opacity="0.7"/>
<path d="M13,10.4 L115,10.4 Q117.6,10.4 117.6,13 L117.6,115 Q117.6,117.6 115,117.6 L13,117.6 Q10.4,117.6 10.4,115 L10.4,13 Q10.4,10.4 13,10.4 Z" fill="none" stroke="#C9566C" stroke-width="1" opacity="0.75" stroke-linejoin="round" stroke-linecap="round"/>
<path d="M16,11.2 L19.6,11.2" fill="none" stroke="#e9bbc4" stroke-width="0.9" opacity="0.55" stroke-linejoin="round" stroke-linecap="round"/>
<path d="M16,116.8 L19.6,116.8" fill="none" stroke="#e9bbc4" stroke-width="0.9" opacity="0.55" stroke-linejoin="round" stroke-linecap="round"/>
<path d="M11.2,16 L11.2,19.6" fill="none" stroke="#e9bbc4" stroke-width="0.9" opacity="0.55" stroke-linejoin="round" stroke-linecap="round"/>
<path d="M116.8,16 L116.8,19.6" fill="none" stroke="#e9bbc4" stroke-width="0.9" opacity="0.55" stroke-linejoin="round" stroke-linecap="round"/>
<path d="M24.6,11.2 L28.2,11.2" fill="none" stroke="#e9bbc4" stroke-width="0.9" opacity="0.55" stroke-linejoin="round" stroke-linecap="round"/>
<path d="M24.6,116.8 L28.2,116.8" fill="none" stroke="#e9bbc4" stroke-width="0.9" opacity="0.55" stroke-linejoin="round" stroke-linecap="round"/>
<path d="M11.2,24.6 L11.2,28.2" fill="none" stroke="#e9bbc4" stroke-width="0.9" opacity="0.55" stroke-linejoin="round" stroke-linecap="round"/>
<path d="M116.8,24.6 L116.8,28.2" fill="none" stroke="#e9bbc4" stroke-width="0.9" opacity="0.55" stroke-linejoin="round" stroke-linecap="round"/>
<path d="M33.2,11.2 L36.8,11.2" fill="none" stroke="#e9bbc4" stroke-width="0.9" opacity="0.55" stroke-linejoin="round" stroke-linecap="round"/>
<path d="M33.2,116.8 L36.8,116.8" fill="none" stroke="#e9bbc4" stroke-width="0.9" opacity="0.55" stroke-linejoin="round" stroke-linecap="round"/>
<path d="M11.2,33.2 L11.2,36.8" fill="none" stroke="#e9bbc4" stroke-width="0.9" opacity="0.55" stroke-linejoin="round" stroke-linecap="round"/>
<path d="M116.8,33.2 L116.8,36.8" fill="none" stroke="#e9bbc4" stroke-width="0.9" opacity="0.55" stroke-linejoin="round" stroke-linecap="round"/>
<path d="M41.8,11.2 L45.4,11.2" fill="none" stroke="#e9bbc4" stroke-width="0.9" opacity="0.55" stroke-linejoin="round" stroke-linecap="round"/>
<path d="M41.8,116.8 L45.4,116.8" fill="none" stroke="#e9bbc4" stroke-width="0.9" opacity="0.55" stroke-linejoin="round" stroke-linecap="round"/>
<path d="M11.2,41.8 L11.2,45.4" fill="none" stroke="#e9bbc4" stroke-width="0.9" opacity="0.55" stroke-linejoin="round" stroke-linecap="round"/>
<path d="M116.8,41.8 L116.8,45.4" fill="none" stroke="#e9bbc4" stroke-width="0.9" opacity="0.55" stroke-linejoin="round" stroke-linecap="round"/>
<path d="M50.4,11.2 L54,11.2" fill="none" stroke="#e9bbc4" stroke-width="0.9" opacity="0.55" stroke-linejoin="round" stroke-linecap="round"/>
<path d="M50.4,116.8 L54,116.8" fill="none" stroke="#e9bbc4" stroke-width="0.9" opacity="0.55" stroke-linejoin="round" stroke-linecap="round"/>
<path d="M11.2,50.4 L11.2,54" fill="none" stroke="#e9bbc4" stroke-width="0.9" opacity="0.55" stroke-linejoin="round" stroke-linecap="round"/>
<path d="M116.8,50.4 L116.8,54" fill="none" stroke="#e9bbc4" stroke-width="0.9" opacity="0.55" stroke-linejoin="round" stroke-linecap="round"/>
<path d="M59,11.2 L62.6,11.2" fill="none" stroke="#e9bbc4" stroke-width="0.9" opacity="0.55" stroke-linejoin="round" stroke-linecap="round"/>
<path d="M59,116.8 L62.6,116.8" fill="none" stroke="#e9bbc4" stroke-width="0.9" opacity="0.55" stroke-linejoin="round" stroke-linecap="round"/>
<path d="M11.2,59 L11.2,62.6" fill="none" stroke="#e9bbc4" stroke-width="0.9" opacity="0.55" stroke-linejoin="round" stroke-linecap="round"/>
<path d="M116.8,59 L116.8,62.6" fill="none" stroke="#e9bbc4" stroke-width="0.9" opacity="0.55" stroke-linejoin="round" stroke-linecap="round"/>
<path d="M67.6,11.2 L71.2,11.2" fill="none" stroke="#e9bbc4" stroke-width="0.9" opacity="0.55" stroke-linejoin="round" stroke-linecap="round"/>
<path d="M67.6,116.8 L71.2,116.8" fill="none" stroke="#e9bbc4" stroke-width="0.9" opacity="0.55" stroke-linejoin="round" stroke-linecap="round"/>
<path d="M11.2,67.6 L11.2,71.2" fill="none" stroke="#e9bbc4" stroke-width="0.9" opacity="0.55" stroke-linejoin="round" stroke-linecap="round"/>
<path d="M116.8,67.6 L116.8,71.2" fill="none" stroke="#e9bbc4" stroke-width="0.9" opacity="0.55" stroke-linejoin="round" stroke-linecap="round"/>
<path d="M76.2,11.2 L79.8,11.2" fill="none" stroke="#e9bbc4" stroke-width="0.9" opacity="0.55" stroke-linejoin="round" stroke-linecap="round"/>
<path d="M76.2,116.8 L79.8,116.8" fill="none" stroke="#e9bbc4" stroke-width="0.9" opacity="0.55" stroke-linejoin="round" stroke-linecap="round"/>
<path d="M11.2,76.2 L11.2,79.8" fill="none" stroke="#e9bbc4" stroke-width="0.9" opacity="0.55" stroke-linejoin="round" stroke-linecap="round"/>
<path d="M116.8,76.2 L116.8,79.8" fill="none" stroke="#e9bbc4" stroke-width="0.9" opacity="0.55" stroke-linejoin="round" stroke-linecap="round"/>
<path d="M84.8,11.2 L88.4,11.2" fill="none" stroke="#e9bbc4" stroke-width="0.9" opacity="0.55" stroke-linejoin="round" stroke-linecap="round"/>
<path d="M84.8,116.8 L88.4,116.8" fill="none" stroke="#e9bbc4" stroke-width="0.9" opacity="0.55" stroke-linejoin="round" stroke-linecap="round"/>
<path d="M11.2,84.8 L11.2,88.4" fill="none" stroke="#e9bbc4" stroke-width="0.9" opacity="0.55" stroke-linejoin="round" stroke-linecap="round"/>
<path d="M116.8,84.8 L116.8,88.4" fill="none" stroke="#e9bbc4" stroke-width="0.9" opacity="0.55" stroke-linejoin="round" stroke-linecap="round"/>
<path d="M93.4,11.2 L97,11.2" fill="none" stroke="#e9bbc4" stroke-width="0.9" opacity="0.55" stroke-linejoin="round" stroke-linecap="round"/>
<path d="M93.4,116.8 L97,116.8" fill="none" stroke="#e9bbc4" stroke-width="0.9" opacity="0.55" stroke-linejoin="round" stroke-linecap="round"/>
<path d="M11.2,93.4 L11.2,97" fill="none" stroke="#e9bbc4" stroke-width="0.9" opacity="0.55" stroke-linejoin="round" stroke-linecap="round"/>
<path d="M116.8,93.4 L116.8,97" fill="none" stroke="#e9bbc4" stroke-width="0.9" opacity="0.55" stroke-linejoin="round" stroke-linecap="round"/>
<path d="M102,11.2 L105.6,11.2" fill="none" stroke="#e9bbc4" stroke-width="0.9" opacity="0.55" stroke-linejoin="round" stroke-linecap="round"/>
<path d="M102,116.8 L105.6,116.8" fill="none" stroke="#e9bbc4" stroke-width="0.9" opacity="0.55" stroke-linejoin="round" stroke-linecap="round"/>
<path d="M11.2,102 L11.2,105.6" fill="none" stroke="#e9bbc4" stroke-width="0.9" opacity="0.55" stroke-linejoin="round" stroke-linecap="round"/>
<path d="M116.8,102 L116.8,105.6" fill="none" stroke="#e9bbc4" stroke-width="0.9" opacity="0.55" stroke-linejoin="round" stroke-linecap="round"/>
<path d="M110.6,11.2 L114.2,11.2" fill="none" stroke="#e9bbc4" stroke-width="0.9" opacity="0.55" stroke-linejoin="round" stroke-linecap="round"/>
<path d="M110.6,116.8 L114.2,116.8" fill="none" stroke="#e9bbc4" stroke-width="0.9" opacity="0.55" stroke-linejoin="round" stroke-linecap="round"/>
<path d="M11.2,110.6 L11.2,114.2" fill="none" stroke="#e9bbc4" stroke-width="0.9" opacity="0.55" stroke-linejoin="round" stroke-linecap="round"/>
<path d="M116.8,110.6 L116.8,114.2" fill="none" stroke="#e9bbc4" stroke-width="0.9" opacity="0.55" stroke-linejoin="round" stroke-linecap="round"/>
<circle cx="6.5" cy="6.5" r="2.4" fill="url(#r16)" stroke="#000000" stroke-width="0.7"/>
<circle cx="5.8" cy="5.8" r="0.7" fill="#ffffff" opacity="0.8"/>
<circle cx="121.5" cy="6.5" r="2.4" fill="url(#r17)" stroke="#000000" stroke-width="0.7"/>
<circle cx="120.8" cy="5.8" r="0.7" fill="#ffffff" opacity="0.8"/>
<circle cx="6.5" cy="121.5" r="2.4" fill="url(#r18)" stroke="#000000" stroke-width="0.7"/>
<circle cx="5.8" cy="120.8" r="0.7" fill="#ffffff" opacity="0.8"/>
<circle cx="121.5" cy="121.5" r="2.4" fill="url(#r19)" stroke="#000000" stroke-width="0.7"/>
<circle cx="120.8" cy="120.8" r="0.7" fill="#ffffff" opacity="0.8"/>
</svg>
