<svg xmlns="http://www.w3.org/2000/svg" width="128" height="128" viewBox="0 0 128 128">
<defs><radialGradient id="r1" gradientUnits="userSpaceOnUse" cx="64" cy="64" r="92"><stop offset="0" stop-color="#1d1341"/><stop offset="0.55" stop-color="#0f0a22"/><stop offset="1" stop-color="#040208"/></radialGradient><radialGradient id="r2" gradientUnits="userSpaceOnUse" cx="104.89" cy="21.62" r="47.11"><stop offset="0" stop-color="#b88aff" stop-opacity="0.22"/><stop offset="1" stop-color="#b88aff" stop-opacity="0"/></radialGradient><radialGradient id="r3" gradientUnits="userSpaceOnUse" cx="102.55" cy="42.96" r="46.7"><stop offset="0" stop-color="#b88aff" stop-opacity="0.22"/><stop offset="1" stop-color="#b88aff" stop-opacity="0"/></radialGradient><radialGradient id="r4" gradientUnits="userSpaceOnUse" cx="63.26" cy="46.33" r="40.82"><stop offset="0" stop-color="#b88aff" stop-opacity="0.22"/><stop offset="1" stop-color="#b88aff" stop-opacity="0"/></radialGradient><radialGradient id="r5" gradientUnits="userSpaceOnUse" cx="64" cy="64" r="52"><stop offset="0" stop-color="#c8a0ff" stop-opacity="0.35"/><stop offset="0.35" stop-color="#c8a0ff" stop-opacity="0.19"/><stop offset="0.7" stop-color="#c8a0ff" stop-opacity="0.06"/><stop offset="1" stop-color="#c8a0ff" stop-opacity="0"/></radialGradient><radialGradient id="r6" gradientUnits="userSpaceOnUse" cx="64" cy="64" r="49.5"><stop offset="0" stop-color="#b88aff" stop-opacity="0.6"/><stop offset="0.35" stop-color="#b88aff" stop-opacity="0.33"/><stop offset="0.7" stop-color="#b88aff" stop-opacity="0.1"/><stop offset="1" stop-color="#b88aff" stop-opacity="0"/></radialGradient><linearGradient id="l7" gradientUnits="userSpaceOnUse" x1="64" y1="31" x2="64" y2="97"><stop offset="0" stop-color="#fffbe0"/><stop offset="0.45" stop-color="#ffe23a"/><stop offset="1" stop-color="#ffc22e"/></linearGradient><radialGradient id="r8" gradientUnits="userSpaceOnUse" cx="58" cy="54" r="52"><stop offset="0" stop-color="#0e0a20" stop-opacity="0.1"/><stop offset="0.7" stop-color="#0e0a20" stop-opacity="0.26"/><stop offset="1" stop-color="#0e0a20" stop-opacity="0.55"/></radialGradient><linearGradient id="l9" gradientUnits="userSpaceOnUse" x1="20" y1="10" x2="108" y2="118"><stop offset="0" stop-color="#ece4ff"/><stop offset="0.45" stop-color="#8c80c8"/><stop offset="0.8" stop-color="#2a2050"/><stop offset="1" stop-color="#191330"/></linearGradient><linearGradient id="l10" gradientUnits="userSpaceOnUse" x1="30" y1="30" x2="98" y2="98"><stop offset="0" stop-color="#000000" stop-opacity="0.1"/><stop offset="1" stop-color="#000000" stop-opacity="0.55"/></linearGradient><linearGradient id="l11" gradientUnits="userSpaceOnUse" x1="30" y1="30" x2="98" y2="98"><stop offset="0" stop-color="#ece4ff" stop-opacity="0.45"/><stop offset="1" stop-color="#ece4ff" stop-opacity="0"/></linearGradient></defs>
<rect x="0" y="0" width="128" height="128" fill="url(#r1)"/>
<circle cx="104.89" cy="21.62" r="47.11" fill="url(#r2)"/>
<circle cx="102.55" cy="42.96" r="46.7" fill="url(#r3)"/>
<circle cx="63.26" cy="46.33" r="40.82" fill="url(#r4)"/>
<path d="M-10,51.85 L140,-14.34" fill="none" stroke="#ffffff" stroke-width="4.17" opacity="0.02" stroke-linejoin="round" stroke-linecap="round"/>
<path d="M-10,49.05 L140,-3.83" fill="none" stroke="#ffffff" stroke-width="9.32" opacity="0.02" stroke-linejoin="round" stroke-linecap="round"/>
<path d="M-10,108.71 L140,49.43" fill="none" stroke="#ffffff" stroke-width="5.47" opacity="0.02" stroke-linejoin="round" stroke-linecap="round"/>
<path d="M-10,-7.98 L140,-72.42" fill="none" stroke="#ffffff" stroke-width="6.02" opacity="0.02" stroke-linejoin="round" stroke-linecap="round"/>
<path d="M-10,115.8 L140,55.57" fill="none" stroke="#ffffff" stroke-width="9.97" opacity="0.02" stroke-linejoin="round" stroke-linecap="round"/>
<path d="M-10,58.48 L140,-5.71" fill="none" stroke="#ffffff" stroke-width="4.34" opacity="0.02" stroke-linejoin="round" stroke-linecap="round"/>
<path d="M-10,127.23 L140,69.22" fill="none" stroke="#ffffff" stroke-width="7.98" opacity="0.02" stroke-linejoin="round" stroke-linecap="round"/>
<g transform="translate(64 64) scale(0.76) translate(-64 -64)">
<circle cx="64" cy="64" r="52" fill="url(#r5)"/>
<circle cx="64" cy="64" r="48" fill="none" stroke="#d8bcff" stroke-width="2.4" opacity="1"/>
<circle cx="64" cy="64" r="40.32" fill="none" stroke="#d8bcff" stroke-width="1.2" opacity="0.8"/>
<circle cx="107.92" cy="64" r="1.08" fill="#d8bcff" opacity="1"/>
<path d="M103.24,78.28 L107.3,79.76" fill="none" stroke="#d8bcff" stroke-width="1.44" opacity="1" stroke-linejoin="round" stroke-linecap="round"/>
<path d="M95.99,90.84 L95.28,94.83 L99.3,93.62" fill="none" stroke="#d8bcff" stroke-width="1.2" opacity="1" stroke-linejoin="round" stroke-linecap="round"/>
<path d="M84.88,100.17 L82.85,103.67 L87.04,103.91" fill="none" stroke="#d8bcff" stroke-width="1.2" opacity="1" stroke-linejoin="round" stroke-linecap="round"/>
<path d="M71.25,105.13 L72,109.38" fill="none" stroke="#d8bcff" stroke-width="1.44" opacity="1" stroke-linejoin="round" stroke-linecap="round"/>
<path d="M56.75,105.13 L56,109.38" fill="none" stroke="#d8bcff" stroke-width="1.44" opacity="1" stroke-linejoin="round" stroke-linecap="round"/>
<path d="M43.12,100.17 L40.96,103.91" fill="none" stroke="#d8bcff" stroke-width="1.44" opacity="1" stroke-linejoin="round" stroke-linecap="round"/>
<circle cx="30.36" cy="92.23" r="1.08" fill="#d8bcff" opacity="1"/>
<circle cx="22.73" cy="79.02" r="1.08" fill="#d8bcff" opacity="1"/>
<path d="M22.24,64 L20.22,60.49 L17.92,64" fill="none" stroke="#d8bcff" stroke-width="1.2" opacity="1" stroke-linejoin="round" stroke-linecap="round"/>
<circle cx="22.73" cy="48.98" r="1.08" fill="#d8bcff" opacity="1"/>
<path d="M32.01,37.16 L32.72,33.17 L28.7,34.38" fill="none" stroke="#d8bcff" stroke-width="1.2" opacity="1" stroke-linejoin="round" stroke-linecap="round"/>
<path d="M43.12,27.83 L45.15,24.33 L40.96,24.09" fill="none" stroke="#d8bcff" stroke-width="1.2" opacity="1" stroke-linejoin="round" stroke-linecap="round"/>
<path d="M56.75,22.87 L56,18.62" fill="none" stroke="#d8bcff" stroke-width="1.44" opacity="1" stroke-linejoin="round" stroke-linecap="round"/>
<path d="M71.25,22.87 L75.06,21.5 L72,18.62" fill="none" stroke="#d8bcff" stroke-width="1.2" opacity="1" stroke-linejoin="round" stroke-linecap="round"/>
<path d="M84.88,27.83 L88.93,27.84 L87.04,24.09" fill="none" stroke="#d8bcff" stroke-width="1.2" opacity="1" stroke-linejoin="round" stroke-linecap="round"/>
<path d="M95.99,37.16 L99.3,34.38" fill="none" stroke="#d8bcff" stroke-width="1.44" opacity="1" stroke-linejoin="round" stroke-linecap="round"/>
<circle cx="105.27" cy="48.98" r="1.08" fill="#d8bcff" opacity="1"/>
<circle cx="64" cy="64" r="49.5" fill="url(#r6)"/>
<path d="M66.46,31 L50.09,66.64 L61.54,66.64 L54.18,97 L78.73,57.4 L66.86,57.4 L77.09,31 Z" fill="none" stroke="#0a0610" stroke-width="3.3" stroke-linejoin="round" stroke-linecap="round"/>
<path d="M66.46,31 L50.09,66.64 L61.54,66.64 L54.18,97 L78.73,57.4 L66.86,57.4 L77.09,31 Z" fill="url(#l7)"/>
<path d="M66.46,31 L50.09,66.64 L53.36,65.32 L69.73,31.66 Z" fill="#ffffff" opacity="0.75"/>
</g>
<circle cx="64" cy="64" r="48" fill="url(#r8)"/>
<path d="M0,0 L128,0 L128,128 L0,128 Z M10,64 A54,54 0 1 1 118,64 A54,54 0 1 1 10,64 Z" fill="#050307" fill-rule="evenodd"/>
<path d="M0,0 L128,0 L128,128 L0,128 Z M3,3 L3,125 L125,125 L125,3 Z" fill="#000000" fill-rule="evenodd"/>
<path d="M6,22 Q8,8 22,6" fill="none" stroke="#8c80c8" stroke-width="1.4" opacity="0.55" stroke-linejoin="round" stroke-linecap="round"/>
<circle cx="9" cy="9" r="1.8" fill="#8c80c8" opacity="0.7"/>
<path d="M122,22 Q120,8 106,6" fill="none" stroke="#8c80c8" stroke-width="1.4" opacity="0.55" stroke-linejoin="round" stroke-linecap="round"/>
<circle cx="119" cy="9" r="1.8" fill="#8c80c8" opacity="0.7"/>
<path d="M6,106 Q8,120 22,122" fill="none" stroke="#8c80c8" stroke-width="1.4" opacity="0.55" stroke-linejoin="round" stroke-linecap="round"/>
<circle cx="9" cy="119" r="1.8" fill="#8c80c8" opacity="0.7"/>
<path d="M122,106 Q120,120 106,122" fill="none" stroke="#8c80c8" stroke-width="1.4" opacity="0.55" stroke-linejoin="round" stroke-linecap="round"/>
<circle cx="119" cy="119" r="1.8" fill="#8c80c8" opacity="0.7"/>
<circle cx="64" cy="64" r="52" fill="none" stroke="#000000" stroke-width="11.4"/>
<circle cx="64" cy="64" r="52" fill="none" stroke="url(#l9)" stroke-width="8"/>
<path d="M112.6,64 L119.4,64 M112.18,70.34 L118.93,71.23 M110.94,76.58 L117.51,78.34 M108.9,82.6 L115.18,85.2 M106.09,88.3 L111.98,91.7 M102.56,93.59 L107.95,97.73 M98.37,98.37 L103.17,103.17 M93.59,102.56 L97.73,107.95 M88.3,106.09 L91.7,111.98 M82.6,108.9 L85.2,115.18 M76.58,110.94 L78.34,117.51 M70.34,112.18 L71.23,118.93 M64,112.6 L64,119.4 M57.66,112.18 L56.77,118.93 M51.42,110.94 L49.66,117.51 M45.4,108.9 L42.8,115.18 M39.7,106.09 L36.3,111.98 M34.41,102.56 L30.27,107.95 M29.63,98.37 L24.83,103.17 M25.44,93.59 L20.05,97.73 M21.91,88.3 L16.02,91.7 M19.1,82.6 L12.82,85.2 M17.06,76.58 L10.49,78.34 M15.82,70.34 L9.07,71.23 M15.4,64 L8.6,64 M15.82,57.66 L9.07,56.77 M17.06,51.42 L10.49,49.66 M19.1,45.4 L12.82,42.8 M21.91,39.7 L16.02,36.3 M25.44,34.41 L20.05,30.27 M29.63,29.63 L24.83,24.83 M34.41,25.44 L30.27,20.05 M39.7,21.91 L36.3,16.02 M45.4,19.1 L42.8,12.82 M51.42,17.06 L49.66,10.49 M57.66,15.82 L56.77,9.07 M64,15.4 L64,8.6 M70.34,15.82 L71.23,9.07 M76.58,17.06 L78.34,10.49 M82.6,19.1 L85.2,12.82 M88.3,21.91 L91.7,16.02 M93.59,25.44 L97.73,20.05 M98.37,29.63 L103.17,24.83 M102.56,34.41 L107.95,30.27 M106.09,39.7 L111.98,36.3 M108.9,45.4 L115.18,42.8 M110.94,51.42 L117.51,49.66 M112.18,57.66 L118.93,56.77" fill="none" stroke="#2a2050" stroke-width="0.9" opacity="0.55" stroke-linejoin="round" stroke-linecap="round"/>
<circle cx="64" cy="64" r="47.2" fill="none" stroke="#000000" stroke-width="1.4" opacity="0.85"/>
<circle cx="64" cy="64" r="55.5" fill="none" stroke="#ece4ff" stroke-width="0.6" opacity="0.5"/>
<circle cx="107.8" cy="64" r="0.9" fill="#ece4ff" opacity="0.35"/>
<circle cx="107.13" cy="71.61" r="0.9" fill="#ece4ff" opacity="0.35"/>
<circle cx="105.16" cy="78.98" r="0.9" fill="#ece4ff" opacity="0.35"/>
<circle cx="101.93" cy="85.9" r="0.9" fill="#ece4ff" opacity="0.35"/>
<circle cx="97.55" cy="92.15" r="0.9" fill="#ece4ff" opacity="0.35"/>
<circle cx="92.15" cy="97.55" r="0.9" fill="#ece4ff" opacity="0.35"/>
<circle cx="85.9" cy="101.93" r="0.9" fill="#ece4ff" opacity="0.35"/>
<circle cx="78.98" cy="105.16" r="0.9" fill="#ece4ff" opacity="0.35"/>
<circle cx="71.61" cy="107.13" r="0.9" fill="#ece4ff" opacity="0.35"/>
<circle cx="64" cy="107.8" r="0.9" fill="#ece4ff" opacity="0.35"/>
<circle cx="56.39" cy="107.13" r="0.9" fill="#ece4ff" opacity="0.35"/>
<circle cx="49.02" cy="105.16" r="0.9" fill="#ece4ff" opacity="0.35"/>
<circle cx="42.1" cy="101.93" r="0.9" fill="#ece4ff" opacity="0.35"/>
<circle cx="35.85" cy="97.55" r="0.9" fill="#ece4ff" opacity="0.35"/>
<circle cx="30.45" cy="92.15" r="0.9" fill="#ece4ff" opacity="0.35"/>
<circle cx="26.07" cy="85.9" r="0.9" fill="#ece4ff" opacity="0.35"/>
<circle cx="22.84" cy="78.98" r="0.9" fill="#ece4ff" opacity="0.35"/>
<circle cx="20.87" cy="71.61" r="0.9" fill="#ece4ff" opacity="0.35"/>
<circle cx="20.2" cy="64" r="0.9" fill="#ece4ff" opacity="0.35"/>
<circle cx="20.87" cy="56.39" r="0.9" fill="#ece4ff" opacity="0.35"/>
<circle cx="22.84" cy="49.02" r="0.9" fill="#ece4ff" opacity="0.35"/>
<circle cx="26.07" cy="42.1" r="0.9" fill="#ece4ff" opacity="0.35"/>
<circle cx="30.45" cy="35.85" r="0.9" fill="#ece4ff" opacity="0.35"/>
<circle cx="35.85" cy="30.45" r="0.9" fill="#ece4ff" opacity="0.35"/>
<circle cx="42.1" cy="26.07" r="0.9" fill="#ece4ff" opacity="0.35"/>
<circle cx="49.02" cy="22.84" r="0.9" fill="#ece4ff" opacity="0.35"/>
<circle cx="56.39" cy="20.87" r="0.9" fill="#ece4ff" opacity="0.35"/>
<circle cx="64" cy="20.2" r="0.9" fill="#ece4ff" opacity="0.35"/>
<circle cx="71.61" cy="20.87" r="0.9" fill="#ece4ff" opacity="0.35"/>
<circle cx="78.98" cy="22.84" r="0.9" fill="#ece4ff" opacity="0.35"/>
<circle cx="85.9" cy="26.07" r="0.9" fill="#ece4ff" opacity="0.35"/>
<circle cx="92.15" cy="30.45" r="0.9" fill="#ece4ff" opacity="0.35"/>
<circle cx="97.55" cy="35.85" r="0.9" fill="#ece4ff" opacity="0.35"/>
<circle cx="101.93" cy="42.1" r="0.9" fill="#ece4ff" opacity="0.35"/>
<circle cx="105.16" cy="49.02" r="0.9" fill="#ece4ff" opacity="0.35"/>
<circle cx="107.13" cy="56.39" r="0.9" fill="#ece4ff" opacity="0.35"/>
<path d="M23.5,64 A40.5,40.5 0 1 1 104.5,64 A40.5,40.5 0 1 1 23.5,64 Z" fill="none" stroke="url(#l10)" stroke-width="1.4" stroke-linejoin="round" stroke-linecap="round"/>
<path d="M22.4,64 A41.6,41.6 0 1 1 105.6,64 A41.6,41.6 0 1 1 22.4,64 Z" fill="none" stroke="url(#l11)" stroke-width="0.7" stroke-linejoin="round" stroke-linecap="round"/>
</svg>
