<svg xmlns="http://www.w3.org/2000/svg" width="128" height="128" viewBox="0 0 128 128">
<defs><radialGradient id="r1" gradientUnits="userSpaceOnUse" cx="64" cy="56" r="84"><stop offset="0" stop-color="#2e0d08"/><stop offset="0.6" stop-color="#170807"/><stop offset="1" stop-color="#050307"/></radialGradient><radialGradient id="r2" gradientUnits="userSpaceOnUse" cx="64" cy="64" r="52"><stop offset="0" stop-color="#ff4a2a" stop-opacity="0"/><stop offset="0.62" stop-color="#ff4a2a" stop-opacity="0"/><stop offset="0.78" stop-color="#ff4a2a" stop-opacity="0.38"/><stop offset="0.86" stop-color="#ff4a2a" stop-opacity="0.5"/><stop offset="1" stop-color="#ff4a2a" stop-opacity="0"/></radialGradient><radialGradient id="r3" gradientUnits="userSpaceOnUse" cx="64" cy="64" r="50"><stop offset="0" stop-color="#ff5030" stop-opacity="0.55"/><stop offset="0.35" stop-color="#ff5030" stop-opacity="0.3"/><stop offset="0.7" stop-color="#ff5030" stop-opacity="0.09"/><stop offset="1" stop-color="#ff5030" stop-opacity="0"/></radialGradient><linearGradient id="l4" gradientUnits="userSpaceOnUse" x1="-2.88" y1="0" x2="2.88" y2="0"><stop offset="0" stop-color="#b07c50"/><stop offset="0.5" stop-color="#6a3e22"/><stop offset="1" stop-color="#2a160c"/></linearGradient><radialGradient id="r5" gradientUnits="userSpaceOnUse" cx="-1" cy="19.42" r="6.55"><stop offset="0" stop-color="#ffe9a0"/><stop offset="0.6" stop-color="#c8962e"/><stop offset="1" stop-color="#5a3a0c"/></radialGradient><linearGradient id="l6" gradientUnits="userSpaceOnUse" x1="-6" y1="0" x2="6" y2="0"><stop offset="0" stop-color="#ffffff"/><stop offset="0.47" stop-color="#ced5de"/><stop offset="0.53" stop-color="#b4bfcc"/><stop offset="1" stop-color="#3a4250"/></linearGradient><linearGradient id="l7" gradientUnits="userSpaceOnUse" x1="0" y1="-6" x2="0" y2="3"><stop offset="0" stop-color="#ffe9a0"/><stop offset="0.5" stop-color="#c8962e"/><stop offset="1" stop-color="#5a3a0c"/></linearGradient><radialGradient id="r8" gradientUnits="userSpaceOnUse" cx="-19" cy="-4.5" r="4.8"><stop offset="0" stop-color="#ffe9a0"/><stop offset="1" stop-color="#5a3a0c"/></radialGradient><radialGradient id="r9" gradientUnits="userSpaceOnUse" cx="17" cy="-4.5" r="4.8"><stop offset="0" stop-color="#ffe9a0"/><stop offset="1" stop-color="#5a3a0c"/></radialGradient><linearGradient id="l10" gradientUnits="userSpaceOnUse" x1="-22" y1="0" x2="22" y2="0"><stop offset="0" stop-color="#ffc8a0"/><stop offset="0.4" stop-color="#c8502a"/><stop offset="1" stop-color="#5a1a10"/></linearGradient><linearGradient id="l11" gradientUnits="userSpaceOnUse" x1="-22" y1="0" x2="22" y2="0"><stop offset="0" stop-color="#ffc8a0"/><stop offset="0.5" stop-color="#c8502a"/><stop offset="1" stop-color="#5a1a10"/></linearGradient><linearGradient id="l12" gradientUnits="userSpaceOnUse" x1="-21.5" y1="-28" x2="-11.5" y2="-8"><stop offset="0" stop-color="#ffc8a0"/><stop offset="0.55" stop-color="#c8502a"/><stop offset="1" stop-color="#5a1a10"/></linearGradient><linearGradient id="l13" gradientUnits="userSpaceOnUse" x1="-10.5" y1="-30" x2="-0.5" y2="-10"><stop offset="0" stop-color="#ffc8a0"/><stop offset="0.55" stop-color="#c8502a"/><stop offset="1" stop-color="#5a1a10"/></linearGradient><linearGradient id="l14" gradientUnits="userSpaceOnUse" x1="0.5" y1="-30" x2="10.5" y2="-10"><stop offset="0" stop-color="#ffc8a0"/><stop offset="0.55" stop-color="#c8502a"/><stop offset="1" stop-color="#5a1a10"/></linearGradient><linearGradient id="l15" gradientUnits="userSpaceOnUse" x1="11.5" y1="-28" x2="21.5" y2="-8"><stop offset="0" stop-color="#ffc8a0"/><stop offset="0.55" stop-color="#c8502a"/><stop offset="1" stop-color="#5a1a10"/></linearGradient><linearGradient id="l16" gradientUnits="userSpaceOnUse" x1="0" y1="0" x2="0" y2="12"><stop offset="0" stop-color="#ffc8a0"/><stop offset="1" stop-color="#5a1a10"/></linearGradient><linearGradient id="l17" gradientUnits="userSpaceOnUse" x1="30" y1="40" x2="30" y2="55"><stop offset="0" stop-color="#ffe0a0"/><stop offset="1" stop-color="#c83a1a"/></linearGradient><linearGradient id="l18" gradientUnits="userSpaceOnUse" x1="98" y1="40" x2="98" y2="55"><stop offset="0" stop-color="#ffe0a0"/><stop offset="1" stop-color="#c83a1a"/></linearGradient><linearGradient id="l19" gradientUnits="userSpaceOnUse" x1="0" y1="0" x2="128" y2="128"><stop offset="0" stop-color="#f1bfa6"/><stop offset="0.45" stop-color="#e0703a"/><stop offset="1" stop-color="#5a2d17"/></linearGradient></defs>
<path d="M20,2 L108,2 Q126,2 126,20 L126,108 Q126,126 108,126 L20,126 Q2,126 2,108 L2,20 Q2,2 20,2 Z" fill="#050307"/>
<path d="M21,6 L107,6 Q122,6 122,21 L122,107 Q122,122 107,122 L21,122 Q6,122 6,107 L6,21 Q6,6 21,6 Z" fill="url(#r1)"/>
<g transform="translate(64 64) scale(0.86) translate(-64 -64)">
<circle cx="64" cy="64" r="52" fill="url(#r2)"/>
<circle cx="64" cy="64" r="40" fill="none" stroke="#000000" stroke-width="5" opacity="0.55"/>
<circle cx="64" cy="64" r="40" fill="none" stroke="#ff4a2a" stroke-width="3.2"/>
<circle cx="64" cy="64" r="40" fill="none" stroke="#ffd2ca" stroke-width="1.1"/>
<circle cx="64" cy="64" r="35" fill="none" stroke="#ff4a2a" stroke-width="0.8" opacity="0.55"/>
<g transform="translate(64 64) scale(0.7) translate(-64 -64)">
<circle cx="64" cy="64" r="50" fill="url(#r3)"/>
<g transform="translate(64 104)">
<path d="M-1.38,0 L1.38,0 Q2.88,0 2.88,1.5 L2.88,15.9 Q2.88,17.4 1.38,17.4 L-1.38,17.4 Q-2.88,17.4 -2.88,15.9 L-2.88,1.5 Q-2.88,0 -1.38,0 Z" fill="none" stroke="#0a0610" stroke-width="4" stroke-linejoin="round" stroke-linecap="round"/>
<path d="M-1.38,0 L1.38,0 Q2.88,0 2.88,1.5 L2.88,15.9 Q2.88,17.4 1.38,17.4 L-1.38,17.4 Q-2.88,17.4 -2.88,15.9 L-2.88,1.5 Q-2.88,0 -1.38,0 Z" fill="url(#l4)"/>
<path d="M-2.88,2 L2.88,3.6" fill="none" stroke="#2a160c" stroke-width="0.9" opacity="0.9" stroke-linejoin="round" stroke-linecap="round"/>
<path d="M-2.88,5.2 L2.88,6.8" fill="none" stroke="#2a160c" stroke-width="0.9" opacity="0.9" stroke-linejoin="round" stroke-linecap="round"/>
<path d="M-2.88,8.4 L2.88,10" fill="none" stroke="#2a160c" stroke-width="0.9" opacity="0.9" stroke-linejoin="round" stroke-linecap="round"/>
<path d="M-2.88,11.6 L2.88,13.2" fill="none" stroke="#2a160c" stroke-width="0.9" opacity="0.9" stroke-linejoin="round" stroke-linecap="round"/>
<path d="M-2.88,14.8 L2.88,16.4" fill="none" stroke="#2a160c" stroke-width="0.9" opacity="0.9" stroke-linejoin="round" stroke-linecap="round"/>
<circle cx="0" cy="21.43" r="5.04" fill="url(#r5)" stroke="#0a0610" stroke-width="2"/>
<path d="M-6,0 L-6,-35.5 L-6,-71 L0,-86 L6,-71 L6,-35.5 L6,0 Z" fill="none" stroke="#0a0610" stroke-width="4.4" stroke-linejoin="round" stroke-linecap="round"/>
<path d="M-6,0 L-6,-35.5 L-6,-71 L0,-86 L6,-71 L6,-35.5 L6,0 Z" fill="url(#l6)"/>
<path d="M0,-2 L0,-69" fill="none" stroke="#636970" stroke-width="1.68" opacity="0.8" stroke-linejoin="round" stroke-linecap="round"/>
<path d="M-1.44,-2 L-1.44,-69" fill="none" stroke="#ffffff" stroke-width="0.7" opacity="0.7" stroke-linejoin="round" stroke-linecap="round"/>
<path d="M-5.2,-3 L-5.2,-71 L-0.6,-83.5" fill="none" stroke="#ffffff" stroke-width="0.9" opacity="0.75" stroke-linejoin="round" stroke-linecap="round"/>
<path d="M-18,-6 C-17.13,-6.4 -13.68,-3.3 -10.8,-3 C-7.92,-2.7 7.92,-2.7 10.8,-3 C13.68,-3.3 17.13,-6.4 18,-6 C18.87,-5.6 20.22,0.1 19.5,1 C18.78,1.9 13.83,2.8 10.8,3 C7.77,3.2 -7.77,3.2 -10.8,3 C-13.83,2.8 -18.78,1.9 -19.5,1 C-20.22,0.1 -18.87,-5.6 -18,-6 Z" fill="none" stroke="#0a0610" stroke-width="4" stroke-linejoin="round" stroke-linecap="round"/>
<path d="M-18,-6 C-17.13,-6.4 -13.68,-3.3 -10.8,-3 C-7.92,-2.7 7.92,-2.7 10.8,-3 C13.68,-3.3 17.13,-6.4 18,-6 C18.87,-5.6 20.22,0.1 19.5,1 C18.78,1.9 13.83,2.8 10.8,3 C7.77,3.2 -7.77,3.2 -10.8,3 C-13.83,2.8 -18.78,1.9 -19.5,1 C-20.22,0.1 -18.87,-5.6 -18,-6 Z" fill="url(#l7)"/>
<circle cx="-18.5" cy="-2.8" r="3.3" fill="url(#r8)" stroke="#0a0610" stroke-width="1.2"/>
<circle cx="18.5" cy="-2.8" r="3.3" fill="url(#r9)" stroke="#0a0610" stroke-width="1.2"/>
<circle cx="0" cy="0" r="3.3" fill="#a0182a" stroke="#0a0610" stroke-width="1"/>
<circle cx="-0.6" cy="-0.8" r="1.2" fill="#ffffff" opacity="0.7"/>
</g>
<g transform="translate(64 68) scale(1.12 1.12)">
<path d="M-18,14 L18,14 L22,34 L-22,34 Z" fill="none" stroke="#0a0610" stroke-width="4.8" stroke-linejoin="round" stroke-linecap="round"/>
<path d="M-18,14 L18,14 L22,34 L-22,34 Z" fill="url(#l10)"/>
<path d="M-20,20 L20,20" fill="none" stroke="#c8962e" stroke-width="2.2" stroke-linejoin="round" stroke-linecap="round"/>
<path d="M-21,28 L21,28" fill="none" stroke="#5a1a10" stroke-width="1.2" stroke-linejoin="round" stroke-linecap="round"/>
<path d="M-22,-12 C-19.9,-13.4 19.9,-13.4 22,-12 C24.1,-10.6 22.1,14.6 20,16 C17.9,17.4 -17.9,17.4 -20,16 C-22.1,14.6 -24.1,-10.6 -22,-12 Z" fill="none" stroke="#0a0610" stroke-width="4.8" stroke-linejoin="round" stroke-linecap="round"/>
<path d="M-22,-12 C-19.9,-13.4 19.9,-13.4 22,-12 C24.1,-10.6 22.1,14.6 20,16 C17.9,17.4 -17.9,17.4 -20,16 C-22.1,14.6 -24.1,-10.6 -22,-12 Z" fill="url(#l11)"/>
<path d="M-17,-28 L-16,-28 Q-11,-28 -11,-23 L-11,-13 Q-11,-8 -16,-8 L-17,-8 Q-22,-8 -22,-13 L-22,-23 Q-22,-28 -17,-28 Z" fill="none" stroke="#0a0610" stroke-width="4" stroke-linejoin="round" stroke-linecap="round"/>
<path d="M-17,-28 L-16,-28 Q-11,-28 -11,-23 L-11,-13 Q-11,-8 -16,-8 L-17,-8 Q-22,-8 -22,-13 L-22,-23 Q-22,-28 -17,-28 Z" fill="url(#l12)"/>
<path d="M-21,-19 L-12,-19" fill="none" stroke="#5a1a10" stroke-width="1" stroke-linejoin="round" stroke-linecap="round"/>
<circle cx="-16.5" cy="-23" r="1.3" fill="#ffe9a0"/>
<path d="M-6,-30 L-5,-30 Q0,-30 0,-25 L0,-15 Q0,-10 -5,-10 L-6,-10 Q-11,-10 -11,-15 L-11,-25 Q-11,-30 -6,-30 Z" fill="none" stroke="#0a0610" stroke-width="4" stroke-linejoin="round" stroke-linecap="round"/>
<path d="M-6,-30 L-5,-30 Q0,-30 0,-25 L0,-15 Q0,-10 -5,-10 L-6,-10 Q-11,-10 -11,-15 L-11,-25 Q-11,-30 -6,-30 Z" fill="url(#l13)"/>
<path d="M-10,-21 L-1,-21" fill="none" stroke="#5a1a10" stroke-width="1" stroke-linejoin="round" stroke-linecap="round"/>
<circle cx="-5.5" cy="-25" r="1.3" fill="#ffe9a0"/>
<path d="M5,-30 L6,-30 Q11,-30 11,-25 L11,-15 Q11,-10 6,-10 L5,-10 Q0,-10 0,-15 L0,-25 Q0,-30 5,-30 Z" fill="none" stroke="#0a0610" stroke-width="4" stroke-linejoin="round" stroke-linecap="round"/>
<path d="M5,-30 L6,-30 Q11,-30 11,-25 L11,-15 Q11,-10 6,-10 L5,-10 Q0,-10 0,-15 L0,-25 Q0,-30 5,-30 Z" fill="url(#l14)"/>
<path d="M1,-21 L10,-21" fill="none" stroke="#5a1a10" stroke-width="1" stroke-linejoin="round" stroke-linecap="round"/>
<circle cx="5.5" cy="-25" r="1.3" fill="#ffe9a0"/>
<path d="M16,-28 L17,-28 Q22,-28 22,-23 L22,-13 Q22,-8 17,-8 L16,-8 Q11,-8 11,-13 L11,-23 Q11,-28 16,-28 Z" fill="none" stroke="#0a0610" stroke-width="4" stroke-linejoin="round" stroke-linecap="round"/>
<path d="M16,-28 L17,-28 Q22,-28 22,-23 L22,-13 Q22,-8 17,-8 L16,-8 Q11,-8 11,-13 L11,-23 Q11,-28 16,-28 Z" fill="url(#l15)"/>
<path d="M12,-19 L21,-19" fill="none" stroke="#5a1a10" stroke-width="1" stroke-linejoin="round" stroke-linecap="round"/>
<circle cx="16.5" cy="-23" r="1.3" fill="#ffe9a0"/>
<path d="M-24,2 C-23,1 -12.5,0 -10,0 C-7.5,0 4.5,1.33 6,2 C7.5,2.67 9,7.33 8,8 C7,8.67 -3.5,9.67 -6,10 C-8.5,10.33 -20.5,12.67 -22,12 C-23.5,11.33 -25,3 -24,2 Z" fill="none" stroke="#0a0610" stroke-width="4" stroke-linejoin="round" stroke-linecap="round"/>
<path d="M-24,2 C-23,1 -12.5,0 -10,0 C-7.5,0 4.5,1.33 6,2 C7.5,2.67 9,7.33 8,8 C7,8.67 -3.5,9.67 -6,10 C-8.5,10.33 -20.5,12.67 -22,12 C-23.5,11.33 -25,3 -24,2 Z" fill="url(#l16)"/>
<path d="M-8,1.5 L-8,10" fill="none" stroke="#5a1a10" stroke-width="0.9" stroke-linejoin="round" stroke-linecap="round"/>
<path d="M-20,-26 C-17.33,-26.67 -10.33,-30 -4,-30 C2.33,-30 14.33,-26.67 18,-26" fill="none" stroke="#ffffff" stroke-width="1.2" opacity="0.35" stroke-linejoin="round" stroke-linecap="round"/>
</g>
<path d="M23,50 L30,40 L37,50 L37,55 L30,46 L23,55 Z" fill="none" stroke="#0a0610" stroke-width="3.2" stroke-linejoin="round" stroke-linecap="round"/>
<path d="M23,50 L30,40 L37,50 L37,55 L30,46 L23,55 Z" fill="url(#l17)"/>
<path d="M91,50 L98,40 L105,50 L105,55 L98,46 L91,55 Z" fill="none" stroke="#0a0610" stroke-width="3.2" stroke-linejoin="round" stroke-linecap="round"/>
<path d="M91,50 L98,40 L105,50 L105,55 L98,46 L91,55 Z" fill="url(#l18)"/>
</g>
</g>
<path d="M21,6 L107,6 Q122,6 122,21 L122,107 Q122,122 107,122 L21,122 Q6,122 6,107 L6,21 Q6,6 21,6 Z" fill="none" stroke="url(#l19)" stroke-width="4" stroke-linejoin="round" stroke-linecap="round"/>
<path d="M21.5,9.5 L106.5,9.5 Q118.5,9.5 118.5,21.5 L118.5,106.5 Q118.5,118.5 106.5,118.5 L21.5,118.5 Q9.5,118.5 9.5,106.5 L9.5,21.5 Q9.5,9.5 21.5,9.5 Z" fill="none" stroke="#000000" stroke-width="1.2" opacity="0.7" stroke-linejoin="round" stroke-linecap="round"/>
<path d="M21,3 L107,3 Q125,3 125,21 L125,107 Q125,125 107,125 L21,125 Q3,125 3,107 L3,21 Q3,3 21,3 Z" fill="none" stroke="#000000" stroke-width="2" stroke-linejoin="round" stroke-linecap="round"/>
</svg>
