<svg xmlns="http://www.w3.org/2000/svg" width="256" height="256" viewBox="0 0 256 256">
<defs><radialGradient id="r1" gradientUnits="userSpaceOnUse" cx="128" cy="100" r="190"><stop offset="0" stop-color="#141418"/><stop offset="0.55" stop-color="#0a090e"/><stop offset="1" stop-color="#040208"/></radialGradient><radialGradient id="r2" gradientUnits="userSpaceOnUse" cx="211.27" cy="162.29" r="85.7"><stop offset="0" stop-color="#3a3a44" stop-opacity="0.24"/><stop offset="1" stop-color="#3a3a44" stop-opacity="0"/></radialGradient><radialGradient id="r3" gradientUnits="userSpaceOnUse" cx="46.38" cy="108.8" r="66.95"><stop offset="0" stop-color="#3a3a44" stop-opacity="0.24"/><stop offset="1" stop-color="#3a3a44" stop-opacity="0"/></radialGradient><radialGradient id="r4" gradientUnits="userSpaceOnUse" cx="133.9" cy="39.55" r="57.68"><stop offset="0" stop-color="#3a3a44" stop-opacity="0.24"/><stop offset="1" stop-color="#3a3a44" stop-opacity="0"/></radialGradient><radialGradient id="r5" gradientUnits="userSpaceOnUse" cx="117.14" cy="53.16" r="68.2"><stop offset="0" stop-color="#2a2a34" stop-opacity="0.24"/><stop offset="1" stop-color="#2a2a34" stop-opacity="0"/></radialGradient><radialGradient id="r6" gradientUnits="userSpaceOnUse" cx="34.85" cy="32.87" r="78.4"><stop offset="0" stop-color="#2a2a34" stop-opacity="0.24"/><stop offset="1" stop-color="#2a2a34" stop-opacity="0"/></radialGradient><radialGradient id="r7" gradientUnits="userSpaceOnUse" cx="128" cy="118" r="185"><stop offset="0" stop-color="#000000" stop-opacity="0"/><stop offset="0.6" stop-color="#000000" stop-opacity="0"/><stop offset="0.88" stop-color="#000000" stop-opacity="0.45"/><stop offset="1" stop-color="#000000" stop-opacity="0.8"/></radialGradient><linearGradient id="l8" gradientUnits="userSpaceOnUse" x1="20" y1="184" x2="236" y2="256"><stop offset="0" stop-color="#44444e"/><stop offset="0.45" stop-color="#1e1e24"/><stop offset="1" stop-color="#060608"/></linearGradient><linearGradient id="l9" gradientUnits="userSpaceOnUse" x1="56" y1="30" x2="200" y2="190"><stop offset="0" stop-color="#44444e"/><stop offset="0.45" stop-color="#1e1e24"/><stop offset="1" stop-color="#060608"/></linearGradient><radialGradient id="r10" gradientUnits="userSpaceOnUse" cx="128" cy="128" r="70"><stop offset="0" stop-color="#0c0c10"/><stop offset="1" stop-color="#000000"/></radialGradient><radialGradient id="r11" gradientUnits="userSpaceOnUse" cx="112" cy="116" r="7"><stop offset="0" stop-color="#c8d0e0" stop-opacity="0.35"/><stop offset="1" stop-color="#c8d0e0" stop-opacity="0"/></radialGradient><radialGradient id="r12" gradientUnits="userSpaceOnUse" cx="144" cy="116" r="7"><stop offset="0" stop-color="#c8d0e0" stop-opacity="0.35"/><stop offset="1" stop-color="#c8d0e0" stop-opacity="0"/></radialGradient><linearGradient id="l13" gradientUnits="userSpaceOnUse" x1="0" y1="0" x2="256" y2="256"><stop offset="0" stop-color="#c0c0cc"/><stop offset="0.4" stop-color="#6a6a74"/><stop offset="0.75" stop-color="#1e1e24"/><stop offset="1" stop-color="#121216"/></linearGradient><linearGradient id="l14" gradientUnits="userSpaceOnUse" x1="7" y1="7" x2="29" y2="29"><stop offset="0" stop-color="#c0c0cc"/><stop offset="1" stop-color="#1e1e24"/></linearGradient><radialGradient id="r15" gradientUnits="userSpaceOnUse" cx="15.6" cy="15.6" r="5"><stop offset="0" stop-color="#ffffff"/><stop offset="0.4" stop-color="#9aa0b0"/><stop offset="1" stop-color="#3e4046"/></radialGradient><linearGradient id="l16" gradientUnits="userSpaceOnUse" x1="249" y1="7" x2="227" y2="29"><stop offset="0" stop-color="#c0c0cc"/><stop offset="1" stop-color="#1e1e24"/></linearGradient><radialGradient id="r17" gradientUnits="userSpaceOnUse" cx="237.6" cy="15.6" r="5"><stop offset="0" stop-color="#ffffff"/><stop offset="0.4" stop-color="#9aa0b0"/><stop offset="1" stop-color="#3e4046"/></radialGradient><linearGradient id="l18" gradientUnits="userSpaceOnUse" x1="7" y1="249" x2="29" y2="227"><stop offset="0" stop-color="#c0c0cc"/><stop offset="1" stop-color="#1e1e24"/></linearGradient><radialGradient id="r19" gradientUnits="userSpaceOnUse" cx="15.6" cy="237.6" r="5"><stop offset="0" stop-color="#ffffff"/><stop offset="0.4" stop-color="#9aa0b0"/><stop offset="1" stop-color="#3e4046"/></radialGradient><linearGradient id="l20" gradientUnits="userSpaceOnUse" x1="249" y1="249" x2="227" y2="227"><stop offset="0" stop-color="#c0c0cc"/><stop offset="1" stop-color="#1e1e24"/></linearGradient><radialGradient id="r21" gradientUnits="userSpaceOnUse" cx="237.6" cy="237.6" r="5"><stop offset="0" stop-color="#ffffff"/><stop offset="0.4" stop-color="#9aa0b0"/><stop offset="1" stop-color="#3e4046"/></radialGradient><linearGradient id="l22" gradientUnits="userSpaceOnUse" x1="118" y1="5" x2="138" y2="16"><stop offset="0" stop-color="#c0c0cc"/><stop offset="1" stop-color="#1e1e24"/></linearGradient></defs>
<rect x="0" y="0" width="256" height="256" fill="url(#r1)"/>
<circle cx="211.27" cy="162.29" r="85.7" fill="url(#r2)"/>
<circle cx="46.38" cy="108.8" r="66.95" fill="url(#r3)"/>
<circle cx="133.9" cy="39.55" r="57.68" fill="url(#r4)"/>
<circle cx="117.14" cy="53.16" r="68.2" fill="url(#r5)"/>
<circle cx="34.85" cy="32.87" r="78.4" fill="url(#r6)"/>
<rect x="0" y="0" width="256" height="256" fill="url(#r7)"/>
<path d="M107,178 C101.69,178.7 63.08,187.9 58,190 C52.92,192.1 23.15,209.92 20,214 C16.85,218.08 -9.53,257.32 4,260 C17.53,262.68 238.47,262.68 252,260 C265.53,257.32 239.15,218.08 236,214 C232.85,209.92 203.07,192.1 198,190 C192.93,187.9 154.31,178.7 149,178 C143.69,177.3 112.31,177.3 107,178 Z" fill="none" stroke="#0a0610" stroke-width="5" stroke-linejoin="round" stroke-linecap="round"/>
<path d="M107,178 C101.69,178.7 63.08,187.9 58,190 C52.92,192.1 23.15,209.92 20,214 C16.85,218.08 -9.53,257.32 4,260 C17.53,262.68 238.47,262.68 252,260 C265.53,257.32 239.15,218.08 236,214 C232.85,209.92 203.07,192.1 198,190 C192.93,187.9 154.31,178.7 149,178 C143.69,177.3 112.31,177.3 107,178 Z" fill="url(#l8)"/>
<path d="M128,26 C137.33,26 178,37.5 184,44 C190,50.5 198.33,93 200,104 C201.67,115 205.83,168 204,176 C202.17,184 188.5,198 178,200 C167.5,202 88.5,202 78,200 C67.5,198 53.83,184 52,176 C50.17,168 54.33,115 56,104 C57.67,93 66,50.5 72,44 C78,37.5 118.67,26 128,26 Z" fill="none" stroke="#0a0610" stroke-width="6" stroke-linejoin="round" stroke-linecap="round"/>
<path d="M128,26 C137.33,26 178,37.5 184,44 C190,50.5 198.33,93 200,104 C201.67,115 205.83,168 204,176 C202.17,184 188.5,198 178,200 C167.5,202 88.5,202 78,200 C67.5,198 53.83,184 52,176 C50.17,168 54.33,115 56,104 C57.67,93 66,50.5 72,44 C78,37.5 118.67,26 128,26 Z" fill="url(#l9)"/>
<path d="M98,48 C94.67,58.33 82.67,89.67 78,110 C73.33,130.33 71.33,160 70,170" fill="none" stroke="#060608" stroke-width="3" opacity="0.8" stroke-linejoin="round" stroke-linecap="round"/>
<path d="M162,52 C165.33,61.67 177.67,90.67 182,110 C186.33,129.33 187,158.33 188,168" fill="none" stroke="#060608" stroke-width="3" opacity="0.8" stroke-linejoin="round" stroke-linecap="round"/>
<path d="M128,50 C135.33,50 167.67,65.33 172,72 C176.33,78.67 180.5,120.5 180,130 C179.5,139.5 173.5,181.33 166,186 C158.5,190.67 97.5,190.67 90,186 C82.5,181.33 76.5,139.5 76,130 C75.5,120.5 79.67,78.67 84,72 C88.33,65.33 120.67,50 128,50 Z" fill="url(#r10)"/>
<circle cx="112" cy="116" r="7" fill="url(#r11)"/>
<ellipse cx="112" cy="116" rx="3.4" ry="1.4" fill="#dce4f0" opacity="0.85"/>
<circle cx="144" cy="116" r="7" fill="url(#r12)"/>
<ellipse cx="144" cy="116" rx="3.4" ry="1.4" fill="#dce4f0" opacity="0.85"/>
<path d="M88,64 C91.33,60.67 101.33,48.33 108,44 C114.67,39.67 124.67,39 128,38" fill="none" stroke="#6a6a78" stroke-width="2" opacity="0.5" stroke-linejoin="round" stroke-linecap="round"/>
<path d="M0,0 L256,0 L256,256 L0,256 Z M19,9 L237,9 Q247,9 247,19 L247,237 Q247,247 237,247 L19,247 Q9,247 9,237 L9,19 Q9,9 19,9 Z" fill="#07040a" fill-rule="evenodd"/>
<path d="M19,7 L237,7 Q249,7 249,19 L249,237 Q249,249 237,249 L19,249 Q7,249 7,237 L7,19 Q7,7 19,7 Z" fill="none" stroke="#0a0610" stroke-width="9" stroke-linejoin="round" stroke-linecap="round"/>
<path d="M19,7 L237,7 Q249,7 249,19 L249,237 Q249,249 237,249 L19,249 Q7,249 7,237 L7,19 Q7,7 19,7 Z" fill="none" stroke="url(#l13)" stroke-width="5.5" stroke-linejoin="round" stroke-linecap="round"/>
<path d="M20,12 L236,12 Q244,12 244,20 L244,236 Q244,244 236,244 L20,244 Q12,244 12,236 L12,20 Q12,12 20,12 Z" fill="none" stroke="#000000" stroke-width="1.6" opacity="0.8" stroke-linejoin="round" stroke-linecap="round"/>
<path d="M17,3 L239,3 Q253,3 253,17 L253,239 Q253,253 239,253 L17,253 Q3,253 3,239 L3,17 Q3,3 17,3 Z" fill="none" stroke="#1e1e24" stroke-width="1.2" opacity="0.9" stroke-linejoin="round" stroke-linecap="round"/>
<path d="M13,7 C15.67,7 24.33,7 29,7 C33.67,7 38.33,5.5 41,7 C43.67,8.5 45.33,13.83 45,16 C44.67,18.17 40,19.33 39,20" fill="none" stroke="#0a0610" stroke-width="5.5" stroke-linejoin="round" stroke-linecap="round"/>
<path d="M13,7 C15.67,7 24.33,7 29,7 C33.67,7 38.33,5.5 41,7 C43.67,8.5 45.33,13.83 45,16 C44.67,18.17 40,19.33 39,20" fill="none" stroke="#6a6a74" stroke-width="2.8" stroke-linejoin="round" stroke-linecap="round"/>
<path d="M13,7 C15.67,7 24.33,7 29,7 C33.67,7 38.33,5.5 41,7 C43.67,8.5 45.33,13.83 45,16 C44.67,18.17 40,19.33 39,20" fill="none" stroke="#c0c0cc" stroke-width="0.9" opacity="0.8" stroke-linejoin="round" stroke-linecap="round"/>
<path d="M7,13 C7,15.67 7,24.33 7,29 C7,33.67 5.5,38.33 7,41 C8.5,43.67 13.83,45.33 16,45 C18.17,44.67 19.33,40 20,39" fill="none" stroke="#0a0610" stroke-width="5.5" stroke-linejoin="round" stroke-linecap="round"/>
<path d="M7,13 C7,15.67 7,24.33 7,29 C7,33.67 5.5,38.33 7,41 C8.5,43.67 13.83,45.33 16,45 C18.17,44.67 19.33,40 20,39" fill="none" stroke="#6a6a74" stroke-width="2.8" stroke-linejoin="round" stroke-linecap="round"/>
<path d="M7,13 C7,15.67 7,24.33 7,29 C7,33.67 5.5,38.33 7,41 C8.5,43.67 13.83,45.33 16,45 C18.17,44.67 19.33,40 20,39" fill="none" stroke="#c0c0cc" stroke-width="0.9" opacity="0.8" stroke-linejoin="round" stroke-linecap="round"/>
<path d="M17,5 L29,17 L17,29 L5,17 Z" fill="url(#l14)" stroke="#0a0610" stroke-width="2" stroke-linejoin="round" stroke-linecap="round"/>
<circle cx="17" cy="17" r="7" fill="#9aa0b0" opacity="0.25"/>
<circle cx="17" cy="17" r="4.2" fill="url(#r15)" stroke="#0a0610" stroke-width="1.2"/>
<path d="M243,7 C240.33,7 231.67,7 227,7 C222.33,7 217.67,5.5 215,7 C212.33,8.5 210.67,13.83 211,16 C211.33,18.17 216,19.33 217,20" fill="none" stroke="#0a0610" stroke-width="5.5" stroke-linejoin="round" stroke-linecap="round"/>
<path d="M243,7 C240.33,7 231.67,7 227,7 C222.33,7 217.67,5.5 215,7 C212.33,8.5 210.67,13.83 211,16 C211.33,18.17 216,19.33 217,20" fill="none" stroke="#6a6a74" stroke-width="2.8" stroke-linejoin="round" stroke-linecap="round"/>
<path d="M243,7 C240.33,7 231.67,7 227,7 C222.33,7 217.67,5.5 215,7 C212.33,8.5 210.67,13.83 211,16 C211.33,18.17 216,19.33 217,20" fill="none" stroke="#c0c0cc" stroke-width="0.9" opacity="0.8" stroke-linejoin="round" stroke-linecap="round"/>
<path d="M249,13 C249,15.67 249,24.33 249,29 C249,33.67 250.5,38.33 249,41 C247.5,43.67 242.17,45.33 240,45 C237.83,44.67 236.67,40 236,39" fill="none" stroke="#0a0610" stroke-width="5.5" stroke-linejoin="round" stroke-linecap="round"/>
<path d="M249,13 C249,15.67 249,24.33 249,29 C249,33.67 250.5,38.33 249,41 C247.5,43.67 242.17,45.33 240,45 C237.83,44.67 236.67,40 236,39" fill="none" stroke="#6a6a74" stroke-width="2.8" stroke-linejoin="round" stroke-linecap="round"/>
<path d="M249,13 C249,15.67 249,24.33 249,29 C249,33.67 250.5,38.33 249,41 C247.5,43.67 242.17,45.33 240,45 C237.83,44.67 236.67,40 236,39" fill="none" stroke="#c0c0cc" stroke-width="0.9" opacity="0.8" stroke-linejoin="round" stroke-linecap="round"/>
<path d="M239,5 L227,17 L239,29 L251,17 Z" fill="url(#l16)" stroke="#0a0610" stroke-width="2" stroke-linejoin="round" stroke-linecap="round"/>
<circle cx="239" cy="17" r="7" fill="#9aa0b0" opacity="0.25"/>
<circle cx="239" cy="17" r="4.2" fill="url(#r17)" stroke="#0a0610" stroke-width="1.2"/>
<path d="M13,249 C15.67,249 24.33,249 29,249 C33.67,249 38.33,250.5 41,249 C43.67,247.5 45.33,242.17 45,240 C44.67,237.83 40,236.67 39,236" fill="none" stroke="#0a0610" stroke-width="5.5" stroke-linejoin="round" stroke-linecap="round"/>
<path d="M13,249 C15.67,249 24.33,249 29,249 C33.67,249 38.33,250.5 41,249 C43.67,247.5 45.33,242.17 45,240 C44.67,237.83 40,236.67 39,236" fill="none" stroke="#6a6a74" stroke-width="2.8" stroke-linejoin="round" stroke-linecap="round"/>
<path d="M13,249 C15.67,249 24.33,249 29,249 C33.67,249 38.33,250.5 41,249 C43.67,247.5 45.33,242.17 45,240 C44.67,237.83 40,236.67 39,236" fill="none" stroke="#c0c0cc" stroke-width="0.9" opacity="0.8" stroke-linejoin="round" stroke-linecap="round"/>
<path d="M7,243 C7,240.33 7,231.67 7,227 C7,222.33 5.5,217.67 7,215 C8.5,212.33 13.83,210.67 16,211 C18.17,211.33 19.33,216 20,217" fill="none" stroke="#0a0610" stroke-width="5.5" stroke-linejoin="round" stroke-linecap="round"/>
<path d="M7,243 C7,240.33 7,231.67 7,227 C7,222.33 5.5,217.67 7,215 C8.5,212.33 13.83,210.67 16,211 C18.17,211.33 19.33,216 20,217" fill="none" stroke="#6a6a74" stroke-width="2.8" stroke-linejoin="round" stroke-linecap="round"/>
<path d="M7,243 C7,240.33 7,231.67 7,227 C7,222.33 5.5,217.67 7,215 C8.5,212.33 13.83,210.67 16,211 C18.17,211.33 19.33,216 20,217" fill="none" stroke="#c0c0cc" stroke-width="0.9" opacity="0.8" stroke-linejoin="round" stroke-linecap="round"/>
<path d="M17,251 L29,239 L17,227 L5,239 Z" fill="url(#l18)" stroke="#0a0610" stroke-width="2" stroke-linejoin="round" stroke-linecap="round"/>
<circle cx="17" cy="239" r="7" fill="#9aa0b0" opacity="0.25"/>
<circle cx="17" cy="239" r="4.2" fill="url(#r19)" stroke="#0a0610" stroke-width="1.2"/>
<path d="M243,249 C240.33,249 231.67,249 227,249 C222.33,249 217.67,250.5 215,249 C212.33,247.5 210.67,242.17 211,240 C211.33,237.83 216,236.67 217,236" fill="none" stroke="#0a0610" stroke-width="5.5" stroke-linejoin="round" stroke-linecap="round"/>
<path d="M243,249 C240.33,249 231.67,249 227,249 C222.33,249 217.67,250.5 215,249 C212.33,247.5 210.67,242.17 211,240 C211.33,237.83 216,236.67 217,236" fill="none" stroke="#6a6a74" stroke-width="2.8" stroke-linejoin="round" stroke-linecap="round"/>
<path d="M243,249 C240.33,249 231.67,249 227,249 C222.33,249 217.67,250.5 215,249 C212.33,247.5 210.67,242.17 211,240 C211.33,237.83 216,236.67 217,236" fill="none" stroke="#c0c0cc" stroke-width="0.9" opacity="0.8" stroke-linejoin="round" stroke-linecap="round"/>
<path d="M249,243 C249,240.33 249,231.67 249,227 C249,222.33 250.5,217.67 249,215 C247.5,212.33 242.17,210.67 240,211 C237.83,211.33 236.67,216 236,217" fill="none" stroke="#0a0610" stroke-width="5.5" stroke-linejoin="round" stroke-linecap="round"/>
<path d="M249,243 C249,240.33 249,231.67 249,227 C249,222.33 250.5,217.67 249,215 C247.5,212.33 242.17,210.67 240,211 C237.83,211.33 236.67,216 236,217" fill="none" stroke="#6a6a74" stroke-width="2.8" stroke-linejoin="round" stroke-linecap="round"/>
<path d="M249,243 C249,240.33 249,231.67 249,227 C249,222.33 250.5,217.67 249,215 C247.5,212.33 242.17,210.67 240,211 C237.83,211.33 236.67,216 236,217" fill="none" stroke="#c0c0cc" stroke-width="0.9" opacity="0.8" stroke-linejoin="round" stroke-linecap="round"/>
<path d="M239,251 L227,239 L239,227 L251,239 Z" fill="url(#l20)" stroke="#0a0610" stroke-width="2" stroke-linejoin="round" stroke-linecap="round"/>
<circle cx="239" cy="239" r="7" fill="#9aa0b0" opacity="0.25"/>
<circle cx="239" cy="239" r="4.2" fill="url(#r21)" stroke="#0a0610" stroke-width="1.2"/>
<path d="M118,5 L138,5 L132,13 L128,16 L124,13 Z" fill="url(#l22)" stroke="#0a0610" stroke-width="1.6" stroke-linejoin="round" stroke-linecap="round"/>
</svg>
